<svg width="84" height="20" viewBox="0 0 84 20" fill="none" xmlns="http://www.w3.org/2000/svg">
<path d="M11.1576 4.28933L12.3326 6.63932C12.4909 6.96432 12.9159 7.27266 13.2742 7.33932L15.3992 7.68932C16.7576 7.91433 17.0742 8.89766 16.0992 9.88099L14.4409 11.5393C14.1659 11.8143 14.0076 12.356 14.0992 12.7477L14.5742 14.7977C14.9492 16.4143 14.0826 17.0477 12.6576 16.1977L10.6659 15.0143C10.3076 14.7977 9.70755 14.7977 9.34922 15.0143L7.35755 16.1977C5.93255 17.0393 5.06589 16.4143 5.44089 14.7977L5.91589 12.7477C5.99089 12.3477 5.83255 11.806 5.55755 11.531L3.89922 9.87266C2.92422 8.89766 3.24089 7.91432 4.59922 7.68099L6.72422 7.33099C7.08255 7.27266 7.50755 6.95599 7.66589 6.63099L8.84089 4.28099C9.48255 3.01433 10.5159 3.01433 11.1576 4.28933Z" fill="#A9D0F6" fill-opacity="0.75"/>
<path d="M27.1576 4.28933L28.3326 6.63932C28.4909 6.96432 28.9159 7.27266 29.2742 7.33932L31.3992 7.68932C32.7576 7.91433 33.0742 8.89766 32.0992 9.88099L30.4409 11.5393C30.1659 11.8143 30.0076 12.356 30.0992 12.7477L30.5742 14.7977C30.9492 16.4143 30.0826 17.0477 28.6576 16.1977L26.6659 15.0143C26.3076 14.7977 25.7076 14.7977 25.3492 15.0143L23.3576 16.1977C21.9326 17.0393 21.0659 16.4143 21.4409 14.7977L21.9159 12.7477C21.9909 12.3477 21.8326 11.806 21.5576 11.531L19.8992 9.87266C18.9242 8.89766 19.2409 7.91432 20.5992 7.68099L22.7242 7.33099C23.0826 7.27266 23.5076 6.95599 23.6659 6.63099L24.8409 4.28099C25.4826 3.01433 26.5159 3.01433 27.1576 4.28933Z" fill="#A9D0F6" fill-opacity="0.75"/>
<path d="M43.1576 4.28933L44.3326 6.63932C44.4909 6.96432 44.9159 7.27266 45.2742 7.33932L47.3992 7.68932C48.7576 7.91433 49.0742 8.89766 48.0992 9.88099L46.4409 11.5393C46.1659 11.8143 46.0076 12.356 46.0992 12.7477L46.5742 14.7977C46.9492 16.4143 46.0826 17.0477 44.6576 16.1977L42.6659 15.0143C42.3076 14.7977 41.7076 14.7977 41.3492 15.0143L39.3576 16.1977C37.9326 17.0393 37.0659 16.4143 37.4409 14.7977L37.9159 12.7477C37.9909 12.3477 37.8326 11.806 37.5576 11.531L35.8992 9.87266C34.9242 8.89766 35.2409 7.91432 36.5992 7.68099L38.7242 7.33099C39.0826 7.27266 39.5076 6.95599 39.6659 6.63099L40.8409 4.28099C41.4826 3.01433 42.5159 3.01433 43.1576 4.28933Z" fill="#A9D0F6" fill-opacity="0.75"/>
<path d="M59.1576 4.28933L60.3326 6.63932C60.4909 6.96432 60.9159 7.27266 61.2742 7.33932L63.3992 7.68932C64.7576 7.91433 65.0742 8.89766 64.0992 9.88099L62.4409 11.5393C62.1659 11.8143 62.0076 12.356 62.0992 12.7477L62.5742 14.7977C62.9492 16.4143 62.0826 17.0477 60.6576 16.1977L58.6659 15.0143C58.3076 14.7977 57.7076 14.7977 57.3492 15.0143L55.3576 16.1977C53.9326 17.0393 53.0659 16.4143 53.4409 14.7977L53.9159 12.7477C53.9909 12.3477 53.8326 11.806 53.5576 11.531L51.8992 9.87266C50.9242 8.89766 51.2409 7.91432 52.5992 7.68099L54.7242 7.33099C55.0826 7.27266 55.5076 6.95599 55.6659 6.63099L56.8409 4.28099C57.4826 3.01433 58.5159 3.01433 59.1576 4.28933Z" fill="#A9D0F6" fill-opacity="0.75"/>
<path d="M75.1576 4.28933L76.3326 6.63932C76.4909 6.96432 76.9159 7.27266 77.2742 7.33932L79.3992 7.68932C80.7576 7.91433 81.0742 8.89766 80.0992 9.88099L78.4409 11.5393C78.1659 11.8143 78.0076 12.356 78.0992 12.7477L78.5742 14.7977C78.9492 16.4143 78.0826 17.0477 76.6576 16.1977L74.6659 15.0143C74.3076 14.7977 73.7076 14.7977 73.3492 15.0143L71.3576 16.1977C69.9326 17.0393 69.0659 16.4143 69.4409 14.7977L69.9159 12.7477C69.9909 12.3477 69.8326 11.806 69.5576 11.531L67.8992 9.87266C66.9242 8.89766 67.2409 7.91432 68.5992 7.68099L70.7242 7.33099C71.0826 7.27266 71.5076 6.95599 71.6659 6.63099L72.8409 4.28099C73.4826 3.01433 74.5159 3.01433 75.1576 4.28933Z" fill="#A9D0F6" fill-opacity="0.75"/>
</svg>
