<svg width="19" height="20" viewBox="0 0 19 20" fill="none" xmlns="http://www.w3.org/2000/svg">
<path d="M9.09091 20C8.46684 20 7.83346 19.8589 7.33979 19.5674L2.21684 16.5863C0.130402 15.1663 0 14.95 0 12.7213V7.28576C0 5.05701 0.121088 4.84072 2.17027 3.43952L7.33048 0.430234C8.30849 -0.143411 9.84538 -0.143411 10.8234 0.430234L15.965 3.42071C18.0514 4.84072 18.1818 5.05701 18.1818 7.28576V12.7119C18.1818 14.9406 18.0607 15.1569 16.0116 16.5581L10.8513 19.5674C10.3484 19.8589 9.71498 20 9.09091 20ZM9.09091 1.41766C8.6997 1.41766 8.31781 1.49289 8.04769 1.65276L2.92474 4.64324C1.40648 5.67768 1.40648 5.67768 1.40648 7.28576V12.7119C1.40648 14.32 1.40648 14.32 2.962 15.3826L8.04769 18.3449C8.59724 18.6646 9.59389 18.6646 10.1434 18.3449L15.2664 15.3544C16.7753 14.32 16.7753 14.32 16.7753 12.7119V7.28576C16.7753 5.67768 16.7753 5.67768 15.2198 4.61502L10.1341 1.65276C9.86401 1.49289 9.48212 1.41766 9.09091 1.41766Z" fill="#A2B5C1"/>
<path d="M9.09068 13.5293C7.16259 13.5293 5.59776 11.9494 5.59776 10.0028C5.59776 8.05616 7.16259 6.47629 9.09068 6.47629C11.0188 6.47629 12.5836 8.05616 12.5836 10.0028C12.5836 11.9494 11.0188 13.5293 9.09068 13.5293ZM9.09068 7.88689C7.93569 7.88689 6.99493 8.8367 6.99493 10.0028C6.99493 11.1689 7.93569 12.1187 9.09068 12.1187C10.2457 12.1187 11.1864 11.1689 11.1864 10.0028C11.1864 8.8367 10.2457 7.88689 9.09068 7.88689Z" fill="#A2B5C1"/>
</svg>
