<svg width="20" height="20" viewBox="0 0 20 20" fill="none" xmlns="http://www.w3.org/2000/svg">
<path d="M16.7995 3.4175L11.6746 0.4275C10.6933 -0.1425 9.1568 -0.1425 8.17543 0.4275L3.00097 3.4375C0.949031 4.8375 0.830078 5.0475 0.830078 7.2775V12.7075C0.830078 14.9375 0.949031 15.1575 3.04062 16.5775L8.16552 19.5675C8.66116 19.8575 9.29557 19.9975 9.92008 19.9975C10.5446 19.9975 11.179 19.8575 11.6647 19.5675L16.8392 16.5575C18.8911 15.1575 19.0101 14.9475 19.0101 12.7175V7.2775C19.0101 5.0475 18.8911 4.8375 16.7995 3.4175ZM9.92008 13.2475C8.14569 13.2475 6.69843 11.7875 6.69843 9.9975C6.69843 8.2075 8.14569 6.7475 9.92008 6.7475C11.6945 6.7475 13.1417 8.2075 13.1417 9.9975C13.1417 11.7875 11.6945 13.2475 9.92008 13.2475Z" fill="white"/>
</svg>
