<svg width="26" height="20" viewBox="0 0 26 20" fill="none" xmlns="http://www.w3.org/2000/svg">
<path d="M23.2736 10.3536L23.6271 10L23.2736 9.64645L15.8869 2.25978C15.6955 2.06838 15.6955 1.74496 15.8869 1.55356C16.0783 1.36215 16.4017 1.36215 16.5931 1.55356L24.6865 9.64689C24.8779 9.83829 24.8779 10.1617 24.6865 10.3531L16.5931 18.4464C16.4918 18.5477 16.3679 18.5933 16.24 18.5933C16.1121 18.5933 15.9882 18.5477 15.8869 18.4464C15.6955 18.255 15.6955 17.9316 15.8869 17.7402L23.2736 10.3536Z" fill="#292D32" stroke="#292D32"/>
<path d="M24.1067 10.5H1.66667C1.39615 10.5 1.16667 10.2705 1.16667 10C1.16667 9.72948 1.39615 9.5 1.66667 9.5H24.1067C24.3772 9.5 24.6067 9.72948 24.6067 10C24.6067 10.2705 24.3772 10.5 24.1067 10.5Z" fill="#292D32" stroke="#292D32"/>
</svg>
