<svg width="26" height="20" viewBox="0 0 26 20" fill="none" xmlns="http://www.w3.org/2000/svg">
<path d="M2.72644 9.64645L2.37289 10L2.72644 10.3536L10.1131 17.7402C10.3045 17.9316 10.3045 18.255 10.1131 18.4464L10.107 18.4525L10.1011 18.4588C10.0242 18.5413 9.89869 18.5933 9.76 18.5933C9.63212 18.5933 9.50817 18.5477 9.40688 18.4464L1.31355 10.3531C1.12215 10.1617 1.12215 9.83829 1.31355 9.64689L9.40688 1.55356C9.59829 1.36215 9.92171 1.36215 10.1131 1.55356C10.3045 1.74496 10.3045 2.06838 10.1131 2.25978L2.72644 9.64645Z" fill="#292D32" stroke="#292D32"/>
<path d="M24.3333 10.5H1.89333C1.62281 10.5 1.39333 10.2705 1.39333 10C1.39333 9.72948 1.62281 9.5 1.89333 9.5H24.3333C24.6039 9.5 24.8333 9.72948 24.8333 10C24.8333 10.2705 24.6039 10.5 24.3333 10.5Z" fill="#292D32" stroke="#292D32"/>
</svg>
