<svg width="121" height="45" viewBox="0 0 121 45" fill="none" xmlns="http://www.w3.org/2000/svg">
<path d="M0.000976562 14.5946C0.000976562 6.53422 6.5352 0 14.5956 0H105.812C113.872 0 120.406 6.53422 120.406 14.5946V45H0.000976562V14.5946Z" fill="white"/>
<path d="M20.163 18.66L19.6181 21.6957H15.9792L14.0916 32.3789H10.2581L12.1457 21.6957H8.52624L9.0711 18.66H20.163ZM24.5514 23.447C25.0833 22.8113 25.6865 22.3054 26.3611 21.9292C27.0357 21.553 27.7233 21.3649 28.4238 21.3649L27.7233 25.4319H26.653C25.8487 25.4319 25.2195 25.5811 24.7655 25.8794C24.3114 26.1778 24.0065 26.6967 23.8509 27.4362L22.9752 32.3789H19.1417L21.0876 21.4621H24.9017L24.5514 23.447ZM40.9609 21.4621L39.015 32.3789H35.2009L35.4733 30.8221C35.0452 31.3151 34.5198 31.7173 33.8971 32.0286C33.2874 32.327 32.6128 32.4762 31.8733 32.4762C30.7966 32.4762 29.9598 32.1713 29.3631 31.5616C28.7663 30.9519 28.4679 30.1021 28.4679 29.0124C28.4679 28.6362 28.5068 28.234 28.5847 27.8059L29.6939 21.4621H33.5079L32.4766 27.3194C32.4377 27.4881 32.4182 27.6567 32.4182 27.8254C32.4182 28.2924 32.5544 28.6621 32.8268 28.9346C33.0993 29.194 33.469 29.3238 33.936 29.3238C34.4809 29.3238 34.9414 29.1551 35.3177 28.8178C35.6939 28.4805 35.9468 28.0135 36.0766 27.4167L37.1274 21.4621H40.9609ZM45.9532 32.5151C45.0451 32.5151 44.2342 32.3789 43.5207 32.1065C42.8072 31.834 42.2494 31.4513 41.8472 30.9584C41.4451 30.4524 41.244 29.8751 41.244 29.2265C41.244 29.1097 41.2569 28.9346 41.2829 28.7011H44.9607C44.9478 29.0643 45.058 29.3432 45.2915 29.5378C45.5251 29.7324 45.8494 29.8297 46.2645 29.8297C46.5888 29.8297 46.8548 29.7649 47.0624 29.6351C47.2829 29.5054 47.3932 29.3367 47.3932 29.1292C47.3932 28.8827 47.2569 28.6946 46.9845 28.5649C46.7121 28.4221 46.258 28.247 45.6224 28.0394C44.8829 27.8059 44.2732 27.5789 43.7932 27.3584C43.3132 27.1378 42.8915 26.8135 42.5283 26.3854C42.178 25.9573 42.0029 25.4059 42.0029 24.7313C42.0029 24.0827 42.191 23.4989 42.5672 22.98C42.9564 22.4611 43.5013 22.0589 44.2018 21.7735C44.9024 21.4751 45.7132 21.3259 46.6342 21.3259C47.6202 21.3259 48.4699 21.4946 49.1834 21.8319C49.9099 22.1562 50.4483 22.6103 50.7986 23.194C51.1618 23.7778 51.324 24.4265 51.2851 25.14H47.8602C47.8732 24.7897 47.7694 24.5173 47.5488 24.3227C47.3283 24.1151 47.0105 24.0113 46.5953 24.0113C46.2969 24.0113 46.0505 24.0762 45.8559 24.2059C45.6613 24.3357 45.564 24.5043 45.564 24.7119C45.564 24.9584 45.7002 25.153 45.9726 25.2957C46.258 25.4384 46.7315 25.62 47.3932 25.8405C48.1197 26.074 48.7229 26.3076 49.2029 26.5411C49.6959 26.7616 50.1175 27.0794 50.4678 27.4946C50.818 27.8967 50.9932 28.4157 50.9932 29.0513C50.9932 30.1281 50.5261 30.9778 49.5921 31.6005C48.658 32.2103 47.4451 32.5151 45.9532 32.5151ZM57.4023 28.2924C57.3893 28.3573 57.3829 28.4351 57.3829 28.5259C57.3829 28.7335 57.4412 28.8892 57.558 28.993C57.6877 29.0838 57.8953 29.1292 58.1807 29.1292H59.2899L58.7061 32.3789H57.0326C54.6585 32.3789 53.4715 31.38 53.4715 29.3821C53.4715 29.0449 53.5104 28.6621 53.5883 28.234L54.2304 24.634H52.8877L53.452 21.4621H54.7948L55.2618 18.8157H59.0953L58.6283 21.4621H60.5937L60.0293 24.634H58.0639L57.4023 28.2924ZM65.8457 23.447C66.3776 22.8113 66.9809 22.3054 67.6555 21.9292C68.3301 21.553 69.0176 21.3649 69.7182 21.3649L69.0176 25.4319H67.9474C67.143 25.4319 66.5139 25.5811 66.0598 25.8794C65.6057 26.1778 65.3009 26.6967 65.1452 27.4362L64.2695 32.3789H60.436L62.382 21.4621H66.196L65.8457 23.447ZM76.0282 21.3259C77.4552 21.3259 78.5839 21.7086 79.4142 22.474C80.2574 23.2394 80.679 24.2838 80.679 25.607C80.679 26.0481 80.6466 26.4373 80.5817 26.7746C80.5039 27.1897 80.4261 27.4881 80.3482 27.6697H73.1288C73.1158 27.7476 73.1093 27.8643 73.1093 28.02C73.1093 28.513 73.2261 28.8762 73.4596 29.1097C73.7061 29.3432 74.0304 29.46 74.4325 29.46C75.0682 29.46 75.5742 29.1746 75.9504 28.6038H79.9979C79.6996 29.3562 79.252 30.0308 78.6552 30.6276C78.0715 31.2113 77.3774 31.6719 76.5731 32.0092C75.7817 32.3465 74.9385 32.5151 74.0434 32.5151C72.6163 32.5151 71.4812 32.1259 70.6379 31.3476C69.7947 30.5692 69.3731 29.4989 69.3731 28.1367C69.3731 27.7476 69.412 27.3389 69.4898 26.9108C69.6974 25.7692 70.1061 24.7832 70.7158 23.953C71.3385 23.1097 72.1039 22.4611 73.012 22.007C73.9331 21.553 74.9385 21.3259 76.0282 21.3259ZM76.8261 25.9573C76.852 25.7757 76.865 25.6589 76.865 25.607C76.865 25.1919 76.7352 24.8805 76.4758 24.673C76.2163 24.4524 75.879 24.3421 75.4639 24.3421C74.9839 24.3421 74.5688 24.4784 74.2185 24.7508C73.8682 25.0232 73.6088 25.4254 73.4401 25.9573H76.8261ZM88.0193 21.3259C89.4464 21.3259 90.575 21.7086 91.4053 22.474C92.2485 23.2394 92.6702 24.2838 92.6702 25.607C92.6702 26.0481 92.6377 26.4373 92.5729 26.7746C92.495 27.1897 92.4172 27.4881 92.3393 27.6697H85.1199C85.1069 27.7476 85.1004 27.8643 85.1004 28.02C85.1004 28.513 85.2172 28.8762 85.4507 29.1097C85.6972 29.3432 86.0215 29.46 86.4237 29.46C87.0593 29.46 87.5653 29.1746 87.9415 28.6038H91.9891C91.6907 29.3562 91.2431 30.0308 90.6464 30.6276C90.0626 31.2113 89.3685 31.6719 88.5642 32.0092C87.7729 32.3465 86.9296 32.5151 86.0345 32.5151C84.6075 32.5151 83.4723 32.1259 82.6291 31.3476C81.7858 30.5692 81.3642 29.4989 81.3642 28.1367C81.3642 27.7476 81.4031 27.3389 81.481 26.9108C81.6885 25.7692 82.0972 24.7832 82.7069 23.953C83.3296 23.1097 84.095 22.4611 85.0031 22.007C85.9242 21.553 86.9296 21.3259 88.0193 21.3259ZM88.8172 25.9573C88.8431 25.7757 88.8561 25.6589 88.8561 25.607C88.8561 25.1919 88.7264 24.8805 88.4669 24.673C88.2075 24.4524 87.8702 24.3421 87.455 24.3421C86.975 24.3421 86.5599 24.4784 86.2096 24.7508C85.8593 25.0232 85.5999 25.4254 85.4312 25.9573H88.8172Z" fill="#164665"/>
<path d="M100.545 16.4193H106.221C106.553 16.4193 106.829 16.1437 106.829 15.8112C106.829 15.4788 106.553 15.2031 106.221 15.2031H100.545C100.213 15.2031 99.9372 15.4788 99.9372 15.8112C99.9372 16.1437 100.213 16.4193 100.545 16.4193Z" fill="#164665"/>
<path d="M100.14 25.395C100.415 25.395 100.691 25.3139 100.926 25.1599L104.38 22.8572H107.437C110.226 22.8572 112.099 20.9842 112.099 18.195V13.3301C112.099 10.5409 110.226 8.66797 107.437 8.66797H99.3289C96.5397 8.66797 94.6667 10.5409 94.6667 13.3301V18.195C94.6667 20.7734 96.2721 22.5734 98.7207 22.8247V23.9761C98.7207 24.5031 99.0045 24.9815 99.4667 25.2247C99.6775 25.3382 99.9126 25.395 100.14 25.395ZM107.437 9.87607C109.529 9.87607 110.883 11.2301 110.883 13.322V18.1869C110.883 20.2788 109.529 21.6328 107.437 21.6328H104.194C104.072 21.6328 103.959 21.6653 103.853 21.7382L100.245 24.1383C100.156 24.195 100.075 24.1707 100.034 24.1464C99.9937 24.122 99.9288 24.0734 99.9288 23.968V22.2409C99.9288 21.9085 99.6532 21.6328 99.3207 21.6328C97.2288 21.6328 95.8748 20.2788 95.8748 18.1869V13.322C95.8748 11.2301 97.2288 9.87607 99.3207 9.87607H107.437Z" fill="#164665"/>
</svg>
