<svg width="20" height="20" viewBox="0 0 20 20" fill="none" xmlns="http://www.w3.org/2000/svg">
<path d="M18.8727 13.1319L18.8727 13.1329C18.8774 15.4817 18.3823 17.0396 17.4189 18.0189C16.4571 18.9966 14.9273 19.5 12.618 19.5H7.42954C5.11533 19.5 3.58563 18.9965 2.62388 18.0189C1.66031 17.0395 1.16527 15.4814 1.16527 13.1319V9.72718C1.16527 9.59613 1.27524 9.4955 1.38589 9.4955C1.49654 9.4955 1.60652 9.59613 1.60652 9.72718V13.1319C1.60652 15.1604 1.95521 16.6835 2.93811 17.6814C3.9231 18.6815 5.42829 19.0366 7.42954 19.0366H12.6084C14.6097 19.0366 16.1149 18.6815 17.0999 17.6814C18.0828 16.6835 18.4314 15.1604 18.4314 13.1319V9.72718C18.4314 9.59613 18.5414 9.4955 18.6521 9.4955C18.7627 9.4955 18.8727 9.59613 18.8727 9.72718L18.8727 13.1319Z" fill="#A2B5C1" stroke="#A2B5C1"/>
<path d="M8.43864 0.963364H7.98539L7.94104 1.41444L7.36477 7.2754C7.36473 7.27579 7.36469 7.27618 7.36465 7.27657C7.28448 8.05861 7.51355 8.81547 8.01794 9.37694C8.53702 9.95926 9.29491 10.2314 10.024 10.2314C10.7535 10.2314 11.5117 9.959 12.0308 9.37613L12.0328 9.37393C12.5325 8.80608 12.7639 8.05177 12.6834 7.27621L12.107 1.41444L12.0626 0.963364H11.6094H8.43864ZM10.024 10.7191C9.10375 10.7191 8.28151 10.3562 7.69847 9.69753C7.11269 9.03574 6.83543 8.17048 6.92808 7.22939C6.92808 7.22935 6.92809 7.2293 6.92809 7.22925L7.57159 0.714952C7.57162 0.714655 7.57165 0.714358 7.57169 0.714061C7.58552 0.584821 7.69025 0.5 7.79488 0.5H12.282C12.3919 0.5 12.4915 0.580362 12.5051 0.713251C12.5051 0.713382 12.5051 0.713512 12.5051 0.713643L13.1488 7.22925C13.1488 7.2293 13.1488 7.22935 13.1488 7.22939C13.2413 8.16865 12.9652 9.03238 12.3818 9.69367C11.7665 10.3586 10.9407 10.7191 10.024 10.7191Z" fill="#A2B5C1" stroke="#A2B5C1"/>
<path d="M19.4807 6.90766L19.4807 6.90813C19.5827 7.92599 19.2773 8.87822 18.6347 9.5985C17.9925 10.3183 17.092 10.7191 16.0869 10.7191C14.4007 10.7191 12.8699 9.32128 12.693 7.59856C12.693 7.59823 12.6929 7.59791 12.6929 7.59759L12.0207 0.763034C12.0207 0.762763 12.0207 0.762492 12.0207 0.762221C12.0147 0.696244 12.0365 0.625683 12.0842 0.570301C12.1222 0.526298 12.1752 0.5 12.2435 0.5H15.1741C16.5229 0.5 17.4136 0.787054 18.016 1.33739C18.6217 1.89081 19.0222 2.78869 19.2125 4.20412L19.4807 6.90766ZM13.1392 7.55127L13.1393 7.55313C13.2894 9.01812 14.6103 10.2558 16.0869 10.2558C16.9516 10.2558 17.7413 9.91805 18.311 9.29242L18.311 9.29244L18.3144 9.28862C18.8769 8.65802 19.123 7.82445 19.0446 6.95947L19.0446 6.95947L19.0441 6.95475L18.7751 4.27191L18.7742 4.26337L18.7731 4.25486C18.6216 3.13345 18.3547 2.26361 17.7423 1.69837C17.1221 1.1259 16.2557 0.963364 15.1741 0.963364H13.041V1.46336L12.5434 1.51245L13.1392 7.55127Z" fill="#A2B5C1" stroke="#A2B5C1"/>
<path d="M0.519266 6.90813L0.519431 6.90643L0.777922 4.23325C0.97317 2.80264 1.37622 1.89738 1.98352 1.34041C2.58693 0.786992 3.47724 0.5 4.82592 0.5H7.75646C7.80886 0.5 7.87081 0.522036 7.92717 0.583085C7.96337 0.622289 7.98674 0.68123 7.97935 0.762154C7.97933 0.762447 7.9793 0.76274 7.97927 0.763034L7.3071 7.59759C7.30707 7.59791 7.30704 7.59823 7.307 7.59856C7.1301 9.32128 5.59932 10.7191 3.91313 10.7191C2.90804 10.7191 2.00751 10.3183 1.36529 9.5985C0.722656 8.87822 0.417316 7.92599 0.519266 6.90813ZM1.21749 4.27314L1.21614 4.28297L1.21517 4.29284L0.955893 6.95469C0.865739 7.8284 1.1265 8.66182 1.68559 9.28862C2.24816 9.91932 3.04085 10.2558 3.91313 10.2558C5.3862 10.2558 6.72131 9.02119 6.86094 7.55024C6.86097 7.54991 6.861 7.54958 6.86103 7.54925L7.45656 1.51245L7.51072 0.963364H6.95897H4.82592C3.74549 0.963364 2.8783 1.12302 2.25641 1.6972C1.64296 2.26358 1.37367 3.13835 1.21749 4.27314Z" fill="#A2B5C1" stroke="#A2B5C1"/>
<path d="M12.4261 19.9993H7.62193C7.22799 19.9993 6.90131 19.6676 6.90131 19.2676V16.8287C6.90131 14.78 8.00626 13.6581 10.024 13.6581C12.0418 13.6581 13.1467 14.78 13.1467 16.8287V19.2676C13.1467 19.6676 12.82 19.9993 12.4261 19.9993ZM8.34256 18.5359H11.7055V16.8287C11.7055 15.5995 11.2347 15.1214 10.024 15.1214C8.81337 15.1214 8.34256 15.5995 8.34256 16.8287V18.5359Z" fill="#A2B5C1"/>
</svg>
