<svg width="40" height="40" viewBox="0 0 40 40" fill="none" xmlns="http://www.w3.org/2000/svg">
<path d="M20 40C31.0457 40 40 31.0457 40 20C40 8.95431 31.0457 0 20 0C8.95431 0 0 8.95431 0 20C0 31.0457 8.95431 40 20 40Z" fill="#ED1C24"/>
<path d="M21.2803 5.95361C21.5203 6.00161 21.7443 6.06561 21.9843 6.11361C22.8003 6.30561 23.5843 6.57761 24.2883 7.05761C25.1683 7.66561 25.8083 8.44961 26.1443 9.47361C26.4003 10.2256 26.5443 10.9936 26.5763 11.7936C26.5923 12.0176 26.6563 12.2256 26.6403 12.4496C26.6083 13.7136 26.3683 14.9136 25.7603 16.0336C25.5203 16.4816 25.6003 16.4176 25.9683 16.5136C27.2003 16.8336 28.4003 17.2816 29.5523 17.8096C30.4963 18.2416 31.3763 18.7696 32.0643 19.5376C32.5763 20.0976 32.8963 20.7376 32.8323 21.5376C32.8003 21.8736 32.6403 22.0816 32.3043 22.1136C32.1763 22.1296 32.0323 22.1136 31.9043 22.0816C31.3123 21.9536 30.7043 21.8096 30.1123 21.6976C29.7763 21.6336 29.4403 21.6176 29.1203 21.5856C28.4963 21.5216 27.8723 21.4576 27.2483 21.4256C26.4963 21.3776 25.7603 21.2816 25.0083 21.3296C24.8803 21.3456 24.7523 21.3776 24.6243 21.4096C24.5283 21.4256 24.4163 21.4576 24.3203 21.4736C24.4163 21.5536 24.4963 21.6336 24.5923 21.6976C25.0403 21.9536 25.4723 22.2096 25.9203 22.4496C26.9443 23.0096 28.0323 23.4896 28.9443 24.2256C29.6323 24.7856 30.2403 25.4096 30.6723 26.2096C30.9923 26.8016 31.2483 27.3936 31.3923 28.0336C31.6163 29.0896 31.6003 30.1296 31.1203 31.1216C30.7523 31.8576 30.1443 32.3216 29.3923 32.6096C28.0643 33.1056 26.7843 32.9936 25.5683 32.2096C25.2963 32.0336 25.0403 31.8416 24.7843 31.6656C24.6243 31.5536 24.6083 31.5536 24.5603 31.7296C24.4963 31.9056 24.4643 32.0976 24.3843 32.2736C23.9363 33.2016 23.1683 33.7296 22.1923 33.9536C20.7683 34.2576 19.5043 33.8736 18.3523 33.0096C17.3443 32.2416 16.6403 31.2496 16.1763 30.0816C15.9843 29.6016 15.8563 29.0896 15.7443 28.5776C15.6803 28.2736 15.7283 27.9696 15.7123 27.6496C15.7123 27.5696 15.6643 27.4896 15.6163 27.4416C15.6003 27.4256 15.4883 27.4736 15.4243 27.5216C14.9763 27.9056 14.5123 28.2416 14.0003 28.5296C13.5363 28.8016 13.0563 28.9296 12.5603 29.0096C12.0803 29.0896 11.6003 29.1056 11.1203 29.1056C10.1283 29.1216 9.23234 28.7856 8.52834 28.0976C7.84034 27.4416 7.39234 26.6256 7.24834 25.6656C7.10434 24.7696 7.15234 23.8736 7.20034 22.9776C7.23234 22.3216 7.39234 21.6816 7.55234 21.0416C7.84034 19.9536 8.20834 18.8816 8.76834 17.8896C9.26434 16.9456 9.80834 16.0016 10.5283 15.1856C10.8163 14.8496 11.1843 14.5616 11.5203 14.2576C11.6803 14.1136 11.6643 14.0496 11.4563 13.9856C11.1203 13.8736 10.7843 13.7616 10.4643 13.6336C9.77634 13.3616 9.16834 12.9776 8.72034 12.3536C8.27234 11.7136 8.40034 10.7856 9.07234 10.3856C9.36034 10.1936 9.68034 10.0816 10.0643 10.0816C10.7043 10.0976 11.3443 10.1456 11.9683 10.3216C12.4163 10.4496 12.8963 10.4976 13.3603 10.4496C13.7443 10.4176 14.0483 10.2096 14.3043 9.93761C14.3843 9.85761 14.4643 9.76161 14.5283 9.66561C14.9763 8.96161 15.6323 8.68961 16.4323 8.68961C16.6563 8.68961 16.8803 8.68961 17.0883 8.68961C17.9683 8.67361 18.2083 8.25761 18.3523 7.66561C18.5923 6.64161 19.0083 6.22561 20.0483 6.03361C20.0803 6.03361 20.1123 5.98561 20.1443 5.96961C20.5123 5.95361 20.8963 5.95361 21.2803 5.95361ZM14.8003 13.1536C14.8003 13.1696 14.8003 13.1856 14.8003 13.2016C15.1523 13.2016 15.5203 13.1536 15.8563 13.2176C16.7203 13.3456 17.5203 13.6496 18.2883 14.0656C18.4483 14.1616 18.6083 14.2736 18.7363 14.4176C19.0563 14.8016 18.9283 15.2816 18.4803 15.5056C18.1923 15.6496 17.9043 15.6336 17.6163 15.5856C16.9923 15.4736 16.3843 15.4896 15.7923 15.6176C15.3123 15.6816 14.8643 15.8416 14.4483 16.1296C14.0163 16.4336 13.6483 16.8016 13.3443 17.2496C12.6563 18.2256 12.0963 19.2816 11.6963 20.4016C11.2963 21.4896 11.1523 22.6416 11.0563 23.7936C11.0563 23.8736 11.0723 23.9696 11.0883 24.0496C11.1043 24.2096 11.1203 24.3696 11.1523 24.5296C11.2163 24.8816 11.2483 25.2496 11.3443 25.6016C11.4883 26.0656 11.7923 26.3856 12.2883 26.4976C12.5923 26.5776 12.8643 26.4496 13.1363 26.3696C13.8563 26.1616 14.4323 25.6976 14.9763 25.2016C15.6163 24.6096 16.2243 23.9536 16.8483 23.3296C16.9763 23.2016 17.1203 23.1056 17.2643 23.0096C17.5363 22.8496 17.8243 22.8336 18.0963 23.0256C18.3843 23.2336 18.4323 23.5376 18.3683 23.8576C18.3203 24.0816 18.2723 24.3216 18.1763 24.5296C18.0003 24.9616 17.9843 25.4096 17.9523 25.8576C17.9043 26.4336 18.1443 26.9456 18.4483 27.4256C18.9443 28.1936 19.6803 28.6096 20.5923 28.7216C20.9443 28.7536 21.2803 28.6896 21.5523 28.4976C21.8083 28.3056 22.0003 28.0656 22.0163 27.6976C22.0323 27.3616 22.2883 27.2176 22.6403 27.2336C22.8803 27.2496 23.0403 27.3776 23.2163 27.5216C23.7443 28.0016 24.3043 28.4176 24.9443 28.7216C25.3603 28.9136 25.8083 29.0576 26.2563 29.0576C26.8323 29.0576 27.3923 28.8976 27.8403 28.5136C28.3043 28.1136 28.4803 27.4416 28.2563 26.8656C28.0163 26.2576 27.6323 25.7456 27.0883 25.3616C26.4323 24.9136 25.7283 24.5456 25.0243 24.2096C24.4483 23.9376 23.8723 23.6336 23.3603 23.2336C22.8803 22.8656 22.4803 22.4016 22.2563 21.8256C22.0643 21.3296 22.2083 20.9616 22.6723 20.7536C23.2163 20.5136 23.7923 20.4496 24.3843 20.4336C26.0003 20.3856 27.6163 20.4496 29.2163 20.6096C29.6003 20.6576 30.0003 20.7056 30.3843 20.7696C30.7523 20.8336 31.1363 20.8976 31.5043 20.9456C31.6803 20.9776 31.7283 20.9136 31.6643 20.7536C31.5203 20.4336 31.3283 20.1456 31.0563 19.9056C30.5123 19.4256 29.9043 19.0416 29.2483 18.7536C28.4323 18.3856 27.6003 18.0496 26.7683 17.7456C26.0963 17.5056 25.3923 17.3296 24.6883 17.2656C24.4323 17.2336 24.1763 17.0896 24.1443 16.9136C24.1123 16.6736 24.0803 16.4176 24.3203 16.2256C24.4643 16.1136 24.5923 15.9536 24.6883 15.7936C25.3283 14.8656 25.5523 13.8256 25.6163 12.7216C25.6323 12.3856 25.5683 12.0496 25.5363 11.7136C25.4883 10.8016 25.2803 9.92161 24.8323 9.12161C24.4963 8.52961 24.0483 8.06561 23.4563 7.72961C22.7043 7.29761 21.8723 7.07361 21.0083 6.92961C20.6563 6.86561 20.3043 6.94561 19.9683 7.05761C19.5523 7.20161 19.4083 7.56961 19.3763 7.95361C19.3123 8.72161 18.5123 9.45761 17.7763 9.55361C17.3603 9.61761 16.9283 9.64961 16.5123 9.63361C16.0323 9.61761 15.7123 9.82561 15.4243 10.1776C15.2643 10.3856 15.0883 10.5936 14.9123 10.7696C14.4803 11.2336 13.9683 11.4096 13.3923 11.4416C12.5923 11.4896 11.8243 11.2976 11.0563 11.1376C10.6723 11.0576 10.2883 10.9136 9.90434 11.1216C9.53634 11.2976 9.47234 11.4576 9.64834 11.8096C9.74434 12.0016 9.87234 12.1296 10.0483 12.2576C10.5763 12.6256 11.1683 12.8016 11.7763 13.0096C12.3043 13.1856 12.8483 13.1696 13.3763 13.2656C13.4403 13.2816 13.4883 13.2656 13.5523 13.2656C13.9523 13.2336 14.3843 13.1856 14.8003 13.1536Z" fill="white"/>
<path d="M20.9594 16.0969C21.1674 16.0649 21.3914 16.1129 21.5514 16.3209C21.6474 16.4489 21.6954 16.5929 21.5834 16.7209C21.4554 16.8649 21.4394 16.9609 21.5834 17.1209C21.7274 17.2809 21.6474 17.5049 21.4554 17.6489C21.1674 17.8409 20.8154 17.8729 20.5274 17.7449C20.2234 17.6009 19.9674 17.3449 20.0314 16.9449C20.0474 16.8169 20.0474 16.6729 20.0794 16.5609C20.2234 16.2089 20.4314 16.0969 20.9594 16.0969Z" fill="white"/>
</svg>
