<svg width="20" height="20" viewBox="0 0 20 20" fill="none" xmlns="http://www.w3.org/2000/svg">
<path d="M1.20103 9.11039L1.20103 9.11038L1.19907 9.10789C0.677835 8.4479 0.431951 7.59351 0.51624 6.70235C0.516276 6.70197 0.516313 6.70159 0.516349 6.70121L0.774539 4.11144C0.974016 2.72769 1.37521 1.85432 1.97906 1.31627C2.5815 0.779469 3.47189 0.5 4.82403 0.5H7.13065H8.55306H11.4748H12.8972H15.1654C16.5124 0.5 17.4037 0.779345 18.0065 1.31362C18.6103 1.84868 19.011 2.71544 19.2054 4.08415L19.4828 6.69309C19.4829 6.6938 19.4829 6.6945 19.483 6.6952C19.5669 7.56025 19.3382 8.38829 18.8426 9.03913L18.8425 9.03907L18.837 9.04666C18.217 9.89331 17.2185 10.3849 16.088 10.3849C15.0559 10.3849 14.0543 9.88289 13.4049 9.06056L12.9885 8.53333L12.603 9.08355C12.0366 9.89197 11.1059 10.3849 10.0235 10.3849C8.94492 10.3849 7.98625 9.86688 7.42808 9.05041L7.03784 8.47958L6.61802 9.02903C5.97888 9.86553 4.9608 10.3849 3.911 10.3849C2.80582 10.3849 1.83081 9.91832 1.20103 9.11039Z" fill="white" stroke="white"/>
<path d="M9.44942 15.0834L9.45039 15.0833C10.4897 14.9765 11.1852 15.1553 11.6124 15.4945C12.0256 15.8227 12.2866 16.381 12.2823 17.2716H12.2823V17.274V19.5H7.75604V16.9428C7.75604 15.9895 8.48276 15.1809 9.44942 15.0834Z" fill="white" stroke="white"/>
<path d="M2.14167 12.048L2.14164 12.0481L2.15025 12.051C2.4288 12.1424 2.71583 12.2164 3.01882 12.2595C3.12365 12.2767 3.26946 12.2996 3.41721 12.3027C3.58166 12.3219 3.74637 12.3315 3.91122 12.3315C5.01104 12.3315 6.08755 11.9746 6.9807 11.3534C7.84663 11.9768 8.91049 12.3315 10.0238 12.3315C11.1427 12.3315 12.1935 11.9933 13.0589 11.3709C13.9473 11.9822 15.0056 12.3315 16.0882 12.3315C16.276 12.3315 16.4653 12.3214 16.6466 12.3007C16.7554 12.2918 16.8755 12.2812 16.9998 12.2596C17.3378 12.2153 17.6392 12.1198 17.8967 12.0383L17.9114 12.0337L17.9114 12.0337L17.9186 12.0313C18.2326 11.9267 18.5292 12.1579 18.5292 12.4467V15.2673C18.5292 17.5869 16.623 19.4843 14.2528 19.4997V17.2739C14.2528 15.9567 13.8418 14.8591 12.9797 14.0985C12.2206 13.4187 11.2154 13.1109 10.043 13.1109C9.78967 13.1109 9.53148 13.1209 9.25093 13.1515C7.28969 13.348 5.79472 14.9788 5.79472 16.9426V19.4997C3.42449 19.4843 1.51834 17.5869 1.51834 15.2673V12.4656C1.51834 12.1676 1.82246 11.9368 2.14167 12.048Z" fill="white" stroke="white"/>
</svg>
