<svg width="24" height="24" viewBox="0 0 24 24" fill="none" xmlns="http://www.w3.org/2000/svg">
<path d="M18.6675 2H16.7675C14.5875 2 13.4375 3.15 13.4375 5.33V7.23C13.4375 9.41 14.5875 10.56 16.7675 10.56H18.6675C20.8475 10.56 21.9975 9.41 21.9975 7.23V5.33C21.9975 3.15 20.8475 2 18.6675 2Z" fill="white"/>
<path d="M7.24 13.4297H5.34C3.15 13.4297 2 14.5797 2 16.7597V18.6597C2 20.8497 3.15 21.9997 5.33 21.9997H7.23C9.41 21.9997 10.56 20.8497 10.56 18.6697V16.7697C10.57 14.5797 9.42 13.4297 7.24 13.4297Z" fill="white"/>
<path d="M6.29 10.58C8.6593 10.58 10.58 8.6593 10.58 6.29C10.58 3.9207 8.6593 2 6.29 2C3.9207 2 2 3.9207 2 6.29C2 8.6593 3.9207 10.58 6.29 10.58Z" fill="white"/>
<path d="M17.7119 22.0019C20.0812 22.0019 22.0019 20.0812 22.0019 17.7119C22.0019 15.3426 20.0812 13.4219 17.7119 13.4219C15.3426 13.4219 13.4219 15.3426 13.4219 17.7119C13.4219 20.0812 15.3426 22.0019 17.7119 22.0019Z" fill="white"/>
</svg>
