<svg width="24" height="24" viewBox="0 0 24 24" fill="none" xmlns="http://www.w3.org/2000/svg">
<g clip-path="url(#clip0_1_22280)">
<path d="M12 24C18.6274 24 24 18.6274 24 12C24 5.37258 18.6274 0 12 0C5.37258 0 0 5.37258 0 12C0 18.6274 5.37258 24 12 24Z" fill="#ED1C24"/>
<path d="M12.7678 3.57227C12.9118 3.60107 13.0462 3.63947 13.1902 3.66827C13.6798 3.78347 14.1502 3.94667 14.5726 4.23467C15.1006 4.59947 15.4846 5.06987 15.6862 5.68427C15.8398 6.13547 15.9262 6.59627 15.9454 7.07627C15.955 7.21067 15.9934 7.33547 15.9838 7.46987C15.9646 8.22827 15.8206 8.94827 15.4558 9.62027C15.3118 9.88907 15.3598 9.85067 15.5806 9.90827C16.3198 10.1003 17.0398 10.3691 17.731 10.6859C18.2974 10.9451 18.8254 11.2619 19.2382 11.7227C19.5454 12.0587 19.7374 12.4427 19.699 12.9227C19.6798 13.1243 19.5838 13.2491 19.3822 13.2683C19.3054 13.2779 19.219 13.2683 19.1422 13.2491C18.787 13.1723 18.4222 13.0859 18.067 13.0187C17.8654 12.9803 17.6638 12.9707 17.4718 12.9515C17.0974 12.9131 16.723 12.8747 16.3486 12.8555C15.8974 12.8267 15.4558 12.7691 15.0046 12.7979C14.9278 12.8075 14.851 12.8267 14.7742 12.8459C14.7166 12.8555 14.6494 12.8747 14.5918 12.8843C14.6494 12.9323 14.6974 12.9803 14.755 13.0187C15.0238 13.1723 15.283 13.3259 15.5518 13.4699C16.1662 13.8059 16.819 14.0939 17.3662 14.5355C17.779 14.8715 18.1438 15.2459 18.403 15.7259C18.595 16.0811 18.7486 16.4363 18.835 16.8203C18.9694 17.4539 18.9598 18.0779 18.6718 18.6731C18.451 19.1147 18.0862 19.3931 17.635 19.5659C16.8382 19.8635 16.0702 19.7963 15.3406 19.3259C15.1774 19.2203 15.0238 19.1051 14.8702 18.9995C14.7742 18.9323 14.7646 18.9323 14.7358 19.0379C14.6974 19.1435 14.6782 19.2587 14.6302 19.3643C14.3614 19.9211 13.9006 20.2379 13.315 20.3723C12.4606 20.5547 11.7022 20.3243 11.011 19.8059C10.4062 19.3451 9.98382 18.7499 9.70542 18.0491C9.59022 17.7611 9.51342 17.4539 9.44622 17.1467C9.40782 16.9643 9.43662 16.7819 9.42702 16.5899C9.42702 16.5419 9.39822 16.4939 9.36942 16.4651C9.35982 16.4555 9.29262 16.4843 9.25422 16.5131C8.98542 16.7435 8.70702 16.9451 8.39982 17.1179C8.12142 17.2811 7.83342 17.3579 7.53582 17.4059C7.24782 17.4539 6.95982 17.4635 6.67182 17.4635C6.07662 17.4731 5.53902 17.2715 5.11662 16.8587C4.70382 16.4651 4.43502 15.9755 4.34862 15.3995C4.26222 14.8619 4.29102 14.3243 4.31982 13.7867C4.33902 13.3931 4.43502 13.0091 4.53102 12.6251C4.70382 11.9723 4.92462 11.3291 5.26062 10.7339C5.55822 10.1675 5.88462 9.60107 6.31662 9.11146C6.48942 8.90986 6.71022 8.73707 6.91182 8.55467C7.00782 8.46827 6.99822 8.42986 6.87342 8.39147C6.67182 8.32427 6.47022 8.25707 6.27822 8.18027C5.86542 8.01707 5.50062 7.78667 5.23182 7.41227C4.96302 7.02827 5.03982 6.47147 5.44302 6.23147C5.61582 6.11627 5.80782 6.04907 6.03822 6.04907C6.42222 6.05867 6.80622 6.08747 7.18062 6.19307C7.44942 6.26987 7.73742 6.29867 8.01582 6.26987C8.24622 6.25067 8.42862 6.12587 8.58222 5.96267C8.63022 5.91467 8.67822 5.85707 8.71662 5.79947C8.98542 5.37707 9.37902 5.21387 9.85902 5.21387C9.99342 5.21387 10.1278 5.21387 10.2526 5.21387C10.7806 5.20427 10.9246 4.95467 11.011 4.59947C11.155 3.98507 11.4046 3.73547 12.0286 3.62027C12.0478 3.62027 12.067 3.59147 12.0862 3.58187C12.307 3.57227 12.5374 3.57227 12.7678 3.57227ZM8.87982 7.89227C8.87982 7.90187 8.87982 7.91147 8.87982 7.92107C9.09102 7.92107 9.31182 7.89227 9.51342 7.93067C10.0318 8.00747 10.5118 8.18987 10.9726 8.43947C11.0686 8.49707 11.1646 8.56427 11.2414 8.65067C11.4334 8.88107 11.3566 9.16906 11.0878 9.30346C10.915 9.38986 10.7422 9.38027 10.5694 9.35147C10.195 9.28427 9.83022 9.29387 9.47502 9.37067C9.18702 9.40907 8.91822 9.50506 8.66862 9.67787C8.40942 9.86027 8.18862 10.0811 8.00622 10.3499C7.59342 10.9355 7.25742 11.5691 7.01742 12.2411C6.77742 12.8939 6.69102 13.5851 6.63342 14.2763C6.63342 14.3243 6.64302 14.3819 6.65262 14.4299C6.66222 14.5259 6.67182 14.6219 6.69102 14.7179C6.72942 14.9291 6.74862 15.1499 6.80622 15.3611C6.89262 15.6395 7.07502 15.8315 7.37262 15.8987C7.55502 15.9467 7.71822 15.8699 7.88142 15.8219C8.31342 15.6971 8.65902 15.4187 8.98542 15.1211C9.36942 14.7659 9.73422 14.3723 10.1086 13.9979C10.1854 13.9211 10.2718 13.8635 10.3582 13.8059C10.5214 13.7099 10.6942 13.7003 10.8574 13.8155C11.0302 13.9403 11.059 14.1227 11.0206 14.3147C10.9918 14.4491 10.963 14.5931 10.9054 14.7179C10.7998 14.9771 10.7902 15.2459 10.771 15.5147C10.7422 15.8603 10.8862 16.1675 11.0686 16.4555C11.3662 16.9163 11.8078 17.1659 12.355 17.2331C12.5662 17.2523 12.7678 17.2139 12.931 17.0987C13.0846 16.9835 13.1998 16.8395 13.2094 16.6187C13.219 16.4171 13.3726 16.3307 13.5838 16.3403C13.7278 16.3499 13.8238 16.4267 13.9294 16.5131C14.2462 16.8011 14.5822 17.0507 14.9662 17.2331C15.2158 17.3483 15.4846 17.4347 15.7534 17.4347C16.099 17.4347 16.435 17.3387 16.7038 17.1083C16.9822 16.8683 17.0878 16.4651 16.9534 16.1195C16.8094 15.7547 16.579 15.4475 16.2526 15.2171C15.859 14.9483 15.4366 14.7275 15.0142 14.5259C14.6686 14.3627 14.323 14.1803 14.0158 13.9403C13.7278 13.7195 13.4878 13.4411 13.3534 13.0955C13.2382 12.7979 13.3246 12.5771 13.603 12.4523C13.9294 12.3083 14.275 12.2699 14.6302 12.2603C15.5998 12.2315 16.5694 12.2699 17.5294 12.3659C17.7598 12.3947 17.9998 12.4235 18.2302 12.4619C18.451 12.5003 18.6814 12.5387 18.9022 12.5675C19.0078 12.5867 19.0366 12.5483 18.9982 12.4523C18.9118 12.2603 18.7966 12.0875 18.6334 11.9435C18.307 11.6555 17.9422 11.4251 17.5486 11.2523C17.059 11.0315 16.5598 10.8299 16.0606 10.6475C15.6574 10.5035 15.235 10.3979 14.8126 10.3595C14.659 10.3403 14.5054 10.2539 14.4862 10.1483C14.467 10.0043 14.4478 9.85067 14.5918 9.73547C14.6782 9.66827 14.755 9.57227 14.8126 9.47626C15.1966 8.91947 15.331 8.29546 15.3694 7.63307C15.379 7.43147 15.3406 7.22987 15.3214 7.02827C15.2926 6.48107 15.1678 5.95307 14.899 5.47307C14.6974 5.11787 14.4286 4.83947 14.0734 4.63787C13.6222 4.37867 13.123 4.24427 12.6046 4.15787C12.3934 4.11947 12.1822 4.16747 11.9806 4.23467C11.731 4.32107 11.6446 4.54187 11.6254 4.77227C11.587 5.23307 11.107 5.67467 10.6654 5.73227C10.4158 5.77067 10.1566 5.78987 9.90702 5.78027C9.61902 5.77067 9.42702 5.89547 9.25422 6.10667C9.15822 6.23147 9.05262 6.35627 8.94702 6.46187C8.68782 6.74027 8.38062 6.84587 8.03502 6.86507C7.55502 6.89387 7.09422 6.77867 6.63342 6.68267C6.40302 6.63467 6.17262 6.54827 5.94222 6.67307C5.72142 6.77867 5.68302 6.87467 5.78862 7.08587C5.84622 7.20107 5.92302 7.27787 6.02862 7.35467C6.34542 7.57547 6.70062 7.68107 7.06542 7.80587C7.38222 7.91147 7.70862 7.90187 8.02542 7.95947C8.06382 7.96907 8.09262 7.95947 8.13102 7.95947C8.37102 7.94027 8.63022 7.91147 8.87982 7.89227Z" fill="white"/>
<path d="M12.5754 9.65826C12.7002 9.63906 12.8346 9.66786 12.9306 9.79266C12.9882 9.86946 13.017 9.95586 12.9498 10.0327C12.873 10.1191 12.8634 10.1767 12.9498 10.2727C13.0362 10.3687 12.9882 10.5031 12.873 10.5895C12.7002 10.7047 12.489 10.7239 12.3162 10.6471C12.1338 10.5607 11.9802 10.4071 12.0186 10.1671C12.0282 10.0903 12.0282 10.0039 12.0474 9.93666C12.1338 9.72546 12.2586 9.65826 12.5754 9.65826Z" fill="white"/>
</g>
<defs>
<clipPath id="clip0_1_22280">
<rect width="24" height="24" fill="white"/>
</clipPath>
</defs>
</svg>
