<svg width="20" height="21" viewBox="0 0 20 21" fill="none" xmlns="http://www.w3.org/2000/svg">
<mask id="path-1-inside-1_1_34" fill="white">
<path fill-rule="evenodd" clip-rule="evenodd" d="M4.45155 5.77C4.52165 5.76 4.59176 5.76 4.66186 5.77C6.21413 5.72 7.44593 4.45 7.44593 2.89C7.44593 1.29 6.15404 0 4.5517 0C2.95937 0 1.66748 1.29 1.66748 2.89C1.66748 4.45 2.89928 5.72 4.45155 5.77ZM15.3474 5.77C15.4175 5.76 15.4876 5.76 15.5577 5.77C17.11 5.72 18.3418 4.45 18.3518 2.89C18.3518 1.29 17.0499 0 15.4575 0C13.8552 0 12.5633 1.3 12.5633 2.89C12.5633 4.45 13.7951 5.72 15.3474 5.77ZM14.676 13.5404C16.1281 13.7304 17.7004 13.4504 18.822 12.7004C20.3943 11.6504 20.3943 9.9404 18.812 8.9004C17.6804 8.1504 16.1081 7.8704 14.6259 8.0704C15.0465 8.9004 15.2668 9.8504 15.2668 10.8504C15.2568 11.8104 15.0565 12.7204 14.676 13.5404ZM5.15254 13.5706C4.77198 12.7406 4.56167 11.8206 4.56167 10.8506C4.56167 9.84059 4.782 8.89059 5.1926 8.05059C3.77052 7.89059 2.2583 8.18059 1.18674 8.90059C-0.395579 9.95059 -0.395579 11.6606 1.18674 12.7106C2.26832 13.4206 3.74047 13.7206 5.15254 13.5706ZM10.1395 13.87C10.0594 13.86 9.96927 13.86 9.87914 13.87C8.03644 13.81 6.56429 12.3 6.56429 10.44C6.5743 8.54 8.10655 7 10.0193 7C11.9221 7 13.4644 8.54 13.4644 10.44C13.4544 12.3 11.9922 13.81 10.1395 13.87ZM6.88476 19.6106C5.37255 18.6106 5.37255 16.9506 6.88476 15.9406C8.61729 14.7906 11.4414 14.7906 13.1539 15.9406C14.6661 16.9406 14.6661 18.6006 13.1539 19.6106C11.4314 20.7606 8.60728 20.7606 6.88476 19.6106Z"/>
</mask>
<path fill-rule="evenodd" clip-rule="evenodd" d="M4.45155 5.77C4.52165 5.76 4.59176 5.76 4.66186 5.77C6.21413 5.72 7.44593 4.45 7.44593 2.89C7.44593 1.29 6.15404 0 4.5517 0C2.95937 0 1.66748 1.29 1.66748 2.89C1.66748 4.45 2.89928 5.72 4.45155 5.77ZM15.3474 5.77C15.4175 5.76 15.4876 5.76 15.5577 5.77C17.11 5.72 18.3418 4.45 18.3518 2.89C18.3518 1.29 17.0499 0 15.4575 0C13.8552 0 12.5633 1.3 12.5633 2.89C12.5633 4.45 13.7951 5.72 15.3474 5.77ZM14.676 13.5404C16.1281 13.7304 17.7004 13.4504 18.822 12.7004C20.3943 11.6504 20.3943 9.9404 18.812 8.9004C17.6804 8.1504 16.1081 7.8704 14.6259 8.0704C15.0465 8.9004 15.2668 9.8504 15.2668 10.8504C15.2568 11.8104 15.0565 12.7204 14.676 13.5404ZM5.15254 13.5706C4.77198 12.7406 4.56167 11.8206 4.56167 10.8506C4.56167 9.84059 4.782 8.89059 5.1926 8.05059C3.77052 7.89059 2.2583 8.18059 1.18674 8.90059C-0.395579 9.95059 -0.395579 11.6606 1.18674 12.7106C2.26832 13.4206 3.74047 13.7206 5.15254 13.5706ZM10.1395 13.87C10.0594 13.86 9.96927 13.86 9.87914 13.87C8.03644 13.81 6.56429 12.3 6.56429 10.44C6.5743 8.54 8.10655 7 10.0193 7C11.9221 7 13.4644 8.54 13.4644 10.44C13.4544 12.3 11.9922 13.81 10.1395 13.87ZM6.88476 19.6106C5.37255 18.6106 5.37255 16.9506 6.88476 15.9406C8.61729 14.7906 11.4414 14.7906 13.1539 15.9406C14.6661 16.9406 14.6661 18.6006 13.1539 19.6106C11.4314 20.7606 8.60728 20.7606 6.88476 19.6106Z" fill="white"/>
<path d="M4.66186 5.77L4.52064 6.75998L4.60693 6.77229L4.69405 6.76948L4.66186 5.77ZM4.45155 5.77L4.41936 6.76948L4.50648 6.77229L4.59277 6.75998L4.45155 5.77ZM15.5577 5.77L15.4165 6.75998L15.5028 6.77229L15.5899 6.76948L15.5577 5.77ZM15.3474 5.77L15.3152 6.76948L15.4023 6.77229L15.4886 6.75998L15.3474 5.77ZM18.3518 2.89L19.3518 2.89642V2.89H18.3518ZM18.822 12.7004L18.2667 11.8688L18.2662 11.8691L18.822 12.7004ZM14.676 13.5404L13.7689 13.1194L13.1954 14.3552L14.5462 14.532L14.676 13.5404ZM18.812 8.9004L18.2596 9.73396L18.2628 9.73606L18.812 8.9004ZM14.6259 8.0704L14.4922 7.07938L13.0979 7.26752L13.7339 8.52244L14.6259 8.0704ZM15.2668 10.8504L16.2668 10.8608V10.8504H15.2668ZM5.15254 13.5706L5.25817 14.565L6.64121 14.4181L6.06154 13.1538L5.15254 13.5706ZM5.1926 8.05059L6.09101 8.48975L6.7139 7.21545L5.3044 7.05686L5.1926 8.05059ZM1.18674 8.90059L1.73967 9.73384L1.74445 9.73063L1.18674 8.90059ZM1.18674 12.7106L0.633808 13.5438L0.637965 13.5466L1.18674 12.7106ZM9.87914 13.87L9.84659 14.8695L9.9182 14.8718L9.98941 14.8639L9.87914 13.87ZM10.1395 13.87L10.0157 14.8623L10.0935 14.872L10.1719 14.8695L10.1395 13.87ZM6.56429 10.44L5.56429 10.4347V10.44H6.56429ZM13.4644 10.44L14.4644 10.4454V10.44H13.4644ZM6.88476 15.9406L6.33173 15.1075L6.32935 15.109L6.88476 15.9406ZM6.88476 19.6106L7.44002 18.7789L7.43635 18.7765L6.88476 19.6106ZM13.1539 15.9406L12.5964 16.7708L12.6023 16.7747L13.1539 15.9406ZM13.1539 19.6106L13.7092 20.4423L13.7093 20.4422L13.1539 19.6106ZM4.80308 4.78002C4.6393 4.75666 4.47411 4.75666 4.31033 4.78002L4.59277 6.75998C4.5692 6.76334 4.54421 6.76334 4.52064 6.75998L4.80308 4.78002ZM6.44593 2.89C6.44593 3.91085 5.64186 4.73791 4.62966 4.77052L4.69405 6.76948C6.78639 6.70209 8.44593 4.98915 8.44593 2.89H6.44593ZM4.5517 1C5.60314 1 6.44593 1.84366 6.44593 2.89H8.44593C8.44593 0.736335 6.70494 -1 4.5517 -1V1ZM2.66748 2.89C2.66748 1.84141 3.51253 1 4.5517 1V-1C2.40621 -1 0.667478 0.738593 0.667478 2.89H2.66748ZM4.48374 4.77052C3.47155 4.73791 2.66748 3.91085 2.66748 2.89H0.667478C0.667478 4.98915 2.32701 6.70209 4.41936 6.76948L4.48374 4.77052ZM15.6989 4.78002C15.5351 4.75666 15.3699 4.75666 15.2061 4.78002L15.4886 6.75998C15.465 6.76334 15.44 6.76334 15.4165 6.75998L15.6989 4.78002ZM17.3518 2.88358C17.3452 3.91057 16.5365 4.73795 15.5255 4.77052L15.5899 6.76948C17.6834 6.70205 19.3383 4.98943 19.3517 2.89642L17.3518 2.88358ZM15.4575 1C16.5012 1 17.3518 1.84591 17.3518 2.89H19.3518C19.3518 0.734085 17.5985 -1 15.4575 -1V1ZM13.5633 2.89C13.5633 1.85141 14.4083 1 15.4575 1V-1C13.302 -1 11.5633 0.748588 11.5633 2.89H13.5633ZM15.3796 4.77052C14.3674 4.73791 13.5633 3.91085 13.5633 2.89H11.5633C11.5633 4.98915 13.2228 6.70209 15.3152 6.76948L15.3796 4.77052ZM18.2662 11.8691C17.3869 12.4571 16.071 12.7144 14.8057 12.5489L14.5462 14.532C16.1851 14.7464 18.0139 14.4438 19.3779 13.5317L18.2662 11.8691ZM18.2628 9.73606C18.8452 10.1189 18.9995 10.5237 19 10.7985C19.0005 11.0743 18.8465 11.4816 18.2667 11.8688L19.3774 13.532C20.3699 12.8692 21.002 11.8965 21 10.7948C20.998 9.69206 20.3611 8.72192 19.3613 8.06474L18.2628 9.73606ZM14.7596 9.06142C16.0535 8.88683 17.3698 9.14425 18.2596 9.73396L19.3644 8.06685C17.9909 7.15656 16.1626 6.85397 14.4922 7.07938L14.7596 9.06142ZM16.2668 10.8504C16.2668 9.70392 16.0141 8.59762 15.5179 7.61837L13.7339 8.52244C14.0789 9.20319 14.2668 9.99689 14.2668 10.8504H16.2668ZM15.583 13.9614C16.0268 13.0052 16.2554 11.9542 16.2668 10.8608L14.2669 10.84C14.2583 11.6666 14.0862 12.4356 13.7689 13.1194L15.583 13.9614ZM3.56167 10.8506C3.56167 11.9668 3.80399 13.0287 4.24353 13.9874L6.06154 13.1538C5.73997 12.4525 5.56167 11.6744 5.56167 10.8506H3.56167ZM4.29418 7.61144C3.81429 8.5932 3.56167 9.69406 3.56167 10.8506H5.56167C5.56167 9.98712 5.7497 9.18799 6.09101 8.48975L4.29418 7.61144ZM1.74445 9.73063C2.57887 9.16997 3.84084 8.90481 5.08079 9.04432L5.3044 7.05686C3.7002 6.87637 1.93774 7.19122 0.629025 8.07056L1.74445 9.73063ZM1.73966 11.8774C1.15473 11.4892 1 11.0814 1 10.8056C1 10.5297 1.15473 10.122 1.73966 9.73383L0.633815 8.06736C-0.363572 8.72921 -1 9.70143 -1 10.8056C-1 11.9097 -0.363572 12.882 0.633815 13.5438L1.73966 11.8774ZM5.0469 12.5762C3.82473 12.706 2.59268 12.4373 1.73551 11.8746L0.637965 13.5466C1.94396 14.4039 3.65622 14.7352 5.25817 14.565L5.0469 12.5762ZM9.98941 14.8639C9.9986 14.8629 10.0069 14.8625 10.0131 14.8625C10.0196 14.8625 10.0205 14.8629 10.0157 14.8623L10.2634 12.8777C10.0967 12.8569 9.92744 12.8585 9.76886 12.8761L9.98941 14.8639ZM5.56429 10.44C5.56429 12.8406 7.46558 14.7919 9.84659 14.8695L9.91168 12.8705C8.6073 12.8281 7.56429 11.7594 7.56429 10.44H5.56429ZM10.0193 6C7.55274 6 5.5772 7.98809 5.5643 10.4347L7.56428 10.4453C7.57141 9.09191 8.66035 8 10.0193 8V6ZM14.4644 10.44C14.4644 7.98634 12.473 6 10.0193 6V8C11.3712 8 12.4644 9.09366 12.4644 10.44H14.4644ZM10.1719 14.8695C12.566 14.7919 14.4515 12.8388 14.4644 10.4454L12.4644 10.4346C12.4573 11.7612 11.4184 12.8281 10.1072 12.8705L10.1719 14.8695ZM6.32935 15.109C5.36388 15.7539 4.7506 16.7044 4.7506 17.7794C4.7506 18.8554 5.36505 19.8045 6.33317 20.4447L7.43635 18.7765C6.89225 18.4167 6.7506 18.0359 6.7506 17.7794C6.7506 17.5218 6.89342 17.1374 7.44017 16.7722L6.32935 15.109ZM13.7114 15.1104C12.6552 14.4011 11.315 14.0781 10.0269 14.0781C8.73819 14.0781 7.39559 14.4013 6.33173 15.1075L7.43779 16.7738C8.10646 16.3299 9.04219 16.0781 10.0269 16.0781C11.012 16.0781 11.9402 16.3301 12.5964 16.7708L13.7114 15.1104ZM13.7093 20.4422C14.6748 19.7974 15.2881 18.8468 15.2881 17.7719C15.2881 16.6959 14.6736 15.7467 13.7055 15.1065L12.6023 16.7747C13.1464 17.1345 13.2881 17.5154 13.2881 17.7719C13.2881 18.0294 13.1453 18.4139 12.5985 18.779L13.7093 20.4422ZM6.32951 20.4423C7.38957 21.15 8.73093 21.4731 10.0193 21.4731C11.3078 21.4731 12.6491 21.15 13.7092 20.4423L12.5987 18.7789C11.9362 19.2212 11.0043 19.4731 10.0193 19.4731C9.03444 19.4731 8.10247 19.2212 7.44001 18.7789L6.32951 20.4423Z" fill="#A2B5C1" mask="url(#path-1-inside-1_1_34)"/>
</svg>
