<svg width="20" height="21" viewBox="0 0 20 21" fill="none" xmlns="http://www.w3.org/2000/svg">
<path fill-rule="evenodd" clip-rule="evenodd" d="M4.45155 5.77C4.52165 5.76 4.59176 5.76 4.66186 5.77C6.21413 5.72 7.44593 4.45 7.44593 2.89C7.44593 1.29 6.15404 0 4.5517 0C2.95937 0 1.66748 1.29 1.66748 2.89C1.66748 4.45 2.89928 5.72 4.45155 5.77ZM15.3474 5.77C15.4175 5.76 15.4876 5.76 15.5577 5.77C17.11 5.72 18.3418 4.45 18.3518 2.89C18.3518 1.29 17.0499 0 15.4575 0C13.8552 0 12.5633 1.3 12.5633 2.89C12.5633 4.45 13.7951 5.72 15.3474 5.77ZM14.676 13.5404C16.1281 13.7304 17.7004 13.4504 18.822 12.7004C20.3943 11.6504 20.3943 9.9404 18.812 8.9004C17.6804 8.1504 16.1081 7.8704 14.6259 8.0704C15.0465 8.9004 15.2668 9.8504 15.2668 10.8504C15.2568 11.8104 15.0565 12.7204 14.676 13.5404ZM5.15254 13.5706C4.77198 12.7406 4.56167 11.8206 4.56167 10.8506C4.56167 9.84059 4.782 8.89059 5.1926 8.05059C3.77052 7.89059 2.2583 8.18059 1.18674 8.90059C-0.395579 9.95059 -0.395579 11.6606 1.18674 12.7106C2.26832 13.4206 3.74047 13.7206 5.15254 13.5706ZM10.1395 13.87C10.0594 13.86 9.96927 13.86 9.87914 13.87C8.03644 13.81 6.56429 12.3 6.56429 10.44C6.5743 8.54 8.10655 7 10.0193 7C11.9221 7 13.4644 8.54 13.4644 10.44C13.4544 12.3 11.9922 13.81 10.1395 13.87ZM6.88476 19.6106C5.37255 18.6106 5.37255 16.9506 6.88476 15.9406C8.61729 14.7906 11.4414 14.7906 13.1539 15.9406C14.6661 16.9406 14.6661 18.6006 13.1539 19.6106C11.4314 20.7606 8.60728 20.7606 6.88476 19.6106Z" fill="white"/>
</svg>
