<svg width="100" height="100" viewBox="0 0 100 100" fill="none" xmlns="http://www.w3.org/2000/svg">
<circle cx="50" cy="50" r="50" fill="#FFD600" fill-opacity="0.25"/>
<path d="M49.9999 67.9173C40.1166 67.9173 32.0833 59.884 32.0833 50.0007C32.0833 40.1173 40.1166 32.084 49.9999 32.084C59.8833 32.084 67.9166 40.1173 67.9166 50.0007C67.9166 59.884 59.8833 67.9173 49.9999 67.9173ZM49.9999 34.584C41.4999 34.584 34.5833 41.5007 34.5833 50.0007C34.5833 58.5007 41.4999 65.4173 49.9999 65.4173C58.4999 65.4173 65.4166 58.5007 65.4166 50.0007C65.4166 41.5007 58.4999 34.584 49.9999 34.584Z" fill="#FD6919"/>
<path d="M50 59.1174C47.6666 59.1174 45.3333 58.2341 43.55 56.4508C43.0833 55.9841 42.6666 55.4674 42.2833 54.8508C41.9166 54.2674 42.1 53.5008 42.6833 53.1341C43.2666 52.7675 44.0333 52.9508 44.4 53.5341C44.6833 54.0008 44.9833 54.3675 45.3167 54.7008C47.9 57.2842 52.1 57.2842 54.6833 54.7008C55.6833 53.7008 56.3167 52.4008 56.5333 50.9508C56.6333 50.2675 57.2666 49.7675 57.95 49.8841C58.6333 49.9841 59.1 50.6175 59.0167 51.3009C58.7333 53.2842 57.85 55.0675 56.4667 56.4675C54.6667 58.2341 52.3333 59.1174 50 59.1174Z" fill="#FD6919"/>
<path d="M42.2331 50.1336C42.1664 50.1336 42.1164 50.1336 42.0498 50.1169C41.3664 50.0169 40.8831 49.3836 40.9831 48.7002C41.2664 46.7169 42.1497 44.9336 43.5331 43.5336C47.0831 39.9836 52.8664 39.9836 56.4331 43.5336C56.8997 44.0003 57.3164 44.517 57.6997 45.1503C58.0664 45.7336 57.8831 46.5003 57.2998 46.8669C56.7164 47.2336 55.9498 47.0503 55.5831 46.4669C55.2998 46.0169 54.9997 45.6336 54.6664 45.3003C52.0831 42.7169 47.8831 42.7169 45.2997 45.3003C44.2997 46.3003 43.6664 47.6003 43.4498 49.0503C43.3831 49.6836 42.8497 50.1336 42.2331 50.1336Z" fill="#FD6919"/>
<path d="M43.0339 59.8836C42.3506 59.8836 41.7839 59.3169 41.7839 58.6336V54.1836C41.7839 53.5003 42.3506 52.9336 43.0339 52.9336H47.4839C48.1672 52.9336 48.7339 53.5003 48.7339 54.1836C48.7339 54.8669 48.1672 55.4336 47.4839 55.4336H44.2839V58.6336C44.2839 59.3169 43.7339 59.8836 43.0339 59.8836Z" fill="#FD6919"/>
<path d="M56.9663 47.0672H52.5164C51.833 47.0672 51.2664 46.5005 51.2664 45.8172C51.2664 45.1338 51.833 44.5672 52.5164 44.5672H55.7163V41.3672C55.7163 40.6839 56.283 40.1172 56.9663 40.1172C57.6497 40.1172 58.2163 40.6839 58.2163 41.3672V45.8172C58.2163 46.5172 57.6497 47.0672 56.9663 47.0672Z" fill="#FD6919"/>
</svg>
