<svg width="100" height="100" viewBox="0 0 100 100" fill="none" xmlns="http://www.w3.org/2000/svg">
<circle cx="50" cy="50" r="50" fill="#ED1C24" fill-opacity="0.35"/>
<path d="M65.0001 41.2168C64.9668 41.2168 64.9168 41.2168 64.8668 41.2168C56.0501 40.3335 47.2501 40.0001 38.5334 40.8835L35.1334 41.2168C34.4334 41.2835 33.8168 40.7835 33.7501 40.0835C33.6834 39.3835 34.1834 38.7835 34.8668 38.7168L38.2668 38.3835C47.1334 37.4835 56.1168 37.8335 65.1168 38.7168C65.8001 38.7835 66.3001 39.4001 66.2334 40.0835C66.1834 40.7335 65.6334 41.2168 65.0001 41.2168Z" fill="#ED1C24"/>
<path d="M44.1663 39.534C44.0996 39.534 44.0329 39.534 43.9496 39.5173C43.2829 39.4007 42.8163 38.7507 42.9329 38.084L43.2996 35.9007C43.5663 34.3007 43.9329 32.084 47.8163 32.084H52.1829C56.0829 32.084 56.4496 34.384 56.6996 35.9173L57.0663 38.084C57.1829 38.7673 56.7163 39.4173 56.0496 39.5173C55.3663 39.634 54.7163 39.1673 54.6163 38.5007L54.2496 36.334C54.0163 34.884 53.9663 34.6007 52.1996 34.6007H47.8329C46.0663 34.6007 46.0329 34.834 45.7829 36.3173L45.3996 38.484C45.2996 39.1007 44.7663 39.534 44.1663 39.534Z" fill="#ED1C24"/>
<path d="M55.35 67.9173H44.65C38.8333 67.9173 38.6 64.7006 38.4167 62.1006L37.3333 45.3173C37.2833 44.6339 37.8167 44.0339 38.5 43.9839C39.2 43.9506 39.7833 44.4673 39.8333 45.1506L40.9167 61.9339C41.1 64.4673 41.1667 65.4173 44.65 65.4173H55.35C58.85 65.4173 58.9167 64.4673 59.0833 61.9339L60.1667 45.1506C60.2167 44.4673 60.8167 43.9506 61.5 43.9839C62.1833 44.0339 62.7167 44.6173 62.6667 45.3173L61.5833 62.1006C61.4 64.7006 61.1667 67.9173 55.35 67.9173Z" fill="#ED1C24"/>
<path d="M52.7668 58.75H47.2168C46.5335 58.75 45.9668 58.1833 45.9668 57.5C45.9668 56.8167 46.5335 56.25 47.2168 56.25H52.7668C53.4501 56.25 54.0168 56.8167 54.0168 57.5C54.0168 58.1833 53.4501 58.75 52.7668 58.75Z" fill="#ED1C24"/>
<path d="M54.1663 52.084H45.833C45.1497 52.084 44.583 51.5173 44.583 50.834C44.583 50.1507 45.1497 49.584 45.833 49.584H54.1663C54.8497 49.584 55.4163 50.1507 55.4163 50.834C55.4163 51.5173 54.8497 52.084 54.1663 52.084Z" fill="#ED1C24"/>
</svg>
