<svg width="100" height="100" viewBox="0 0 100 100" fill="none" xmlns="http://www.w3.org/2000/svg">
<circle cx="50" cy="50" r="50" fill="#FFD600" fill-opacity="0.25"/>
<path d="M50 52.916C49.3167 52.916 48.75 52.3493 48.75 51.666V42.916C48.75 42.2327 49.3167 41.666 50 41.666C50.6833 41.666 51.25 42.2327 51.25 42.916V51.666C51.25 52.3493 50.6833 52.916 50 52.916Z" fill="#FD6919"/>
<path d="M49.9997 58.75C49.5497 58.75 49.133 58.5834 48.8163 58.2667C48.6663 58.1001 48.5497 57.9167 48.4497 57.7167C48.3664 57.5167 48.333 57.3 48.333 57.0834C48.333 56.65 48.5163 56.2167 48.8163 55.9C49.433 55.2833 50.5664 55.2833 51.183 55.9C51.483 56.2167 51.6663 56.65 51.6663 57.0834C51.6663 57.3 51.6163 57.5167 51.533 57.7167C51.4496 57.9167 51.333 58.1001 51.183 58.2667C50.8664 58.5834 50.4497 58.75 49.9997 58.75Z" fill="#FD6919"/>
<path d="M50.0006 67.9159C48.884 67.9159 47.7506 67.6325 46.7506 67.0492L36.8506 61.3325C34.8506 60.1658 33.6006 58.0158 33.6006 55.6992V44.2992C33.6006 41.9825 34.8506 39.8325 36.8506 38.6659L46.7506 32.9492C48.7506 31.7826 51.234 31.7826 53.2506 32.9492L63.1507 38.6659C65.1507 39.8325 66.4007 41.9825 66.4007 44.2992V55.6992C66.4007 58.0158 65.1507 60.1658 63.1507 61.3325L53.2506 67.0492C52.2506 67.6325 51.1173 67.9159 50.0006 67.9159ZM50.0006 34.5825C49.3173 34.5825 48.6173 34.7659 48.0006 35.1159L38.1006 40.8325C36.8673 41.5492 36.1006 42.8659 36.1006 44.2992V55.6992C36.1006 57.1158 36.8673 58.4492 38.1006 59.1659L48.0006 64.8825C49.2339 65.5992 50.7673 65.5992 51.984 64.8825L61.884 59.1659C63.1173 58.4492 63.884 57.1325 63.884 55.6992V44.2992C63.884 42.8825 63.1173 41.5492 61.884 40.8325L51.984 35.1159C51.384 34.7659 50.684 34.5825 50.0006 34.5825Z" fill="#FD6919"/>
</svg>
