<svg width="21" height="6" viewBox="0 0 21 6" fill="none" xmlns="http://www.w3.org/2000/svg">
<path d="M10.75 5.5C9.23 5.5 8 4.27 8 2.75C8 1.23 9.23 0 10.75 0C12.27 0 13.5 1.23 13.5 2.75C13.5 4.27 12.27 5.5 10.75 5.5ZM10.75 1.5C10.06 1.5 9.5 2.06 9.5 2.75C9.5 3.44 10.06 4 10.75 4C11.44 4 12 3.44 12 2.75C12 2.06 11.44 1.5 10.75 1.5Z" fill="#292D32"/>
<path d="M18.25 5.5C16.73 5.5 15.5 4.27 15.5 2.75C15.5 1.23 16.73 0 18.25 0C19.77 0 21 1.23 21 2.75C21 4.27 19.77 5.5 18.25 5.5ZM18.25 1.5C17.56 1.5 17 2.06 17 2.75C17 3.44 17.56 4 18.25 4C18.94 4 19.5 3.44 19.5 2.75C19.5 2.06 18.94 1.5 18.25 1.5Z" fill="#292D32"/>
<path d="M3.25 5.5C1.73 5.5 0.5 4.27 0.5 2.75C0.5 1.23 1.73 0 3.25 0C4.77 0 6 1.23 6 2.75C6 4.27 4.77 5.5 3.25 5.5ZM3.25 1.5C2.56 1.5 2 2.06 2 2.75C2 3.44 2.56 4 3.25 4C3.94 4 4.5 3.44 4.5 2.75C4.5 2.06 3.94 1.5 3.25 1.5Z" fill="#292D32"/>
</svg>
