<svg width="20" height="20" viewBox="0 0 20 20" fill="none" xmlns="http://www.w3.org/2000/svg">
<path d="M4.08648 4.53163L4.09619 4.53081L4.10585 4.5296C4.31828 4.50312 4.54622 4.49351 4.79474 4.49351H11.2011C12.7205 4.49351 13.7699 4.87323 14.4428 5.54433C15.1154 6.21519 15.4958 7.26112 15.4958 8.77574V12.7692C15.4958 13.017 15.4862 13.2442 15.4596 13.4559L15.4584 13.4656L15.4576 13.4755C15.3502 14.7323 14.9338 15.6012 14.2689 16.164C13.5971 16.7325 12.5978 17.0515 11.2011 17.0515H10.8007C10.3936 17.0515 10.0052 17.2449 9.76041 17.5705L8.55922 19.1679L8.55855 19.1688C8.37284 19.4169 8.16494 19.5 7.9979 19.5C7.83086 19.5 7.62296 19.4169 7.43725 19.1688L7.43657 19.1679L6.23539 17.5705L6.2354 17.5704L6.23256 17.5667C6.10899 17.4056 5.93635 17.2828 5.77429 17.2011C5.61249 17.1195 5.40676 17.0515 5.19513 17.0515H4.79474C3.20621 17.0515 2.17779 16.8465 1.52832 16.2809C0.896084 15.7302 0.5 14.7227 0.5 12.7692V8.77574C0.5 7.3842 0.821659 6.3881 1.39277 5.71808C1.95857 5.05429 2.83073 4.63872 4.08648 4.53163ZM3.00346 10.9822C3.00346 11.8054 3.66572 12.4805 4.50445 12.4805C5.3299 12.4805 6.00544 11.8086 6.00544 10.9822C6.00544 10.1557 5.3299 9.48377 4.50445 9.48377C3.67899 9.48377 3.00346 10.1557 3.00346 10.9822ZM6.49691 10.9822C6.49691 11.8054 7.15917 12.4805 7.9979 12.4805C8.83662 12.4805 9.49889 11.8054 9.49889 10.9822C9.49889 10.1557 8.82335 9.48377 7.9979 9.48377C7.17244 9.48377 6.49691 10.1557 6.49691 10.9822ZM10.0004 10.9822C10.0004 11.8054 10.6626 12.4805 11.5014 12.4805C12.3268 12.4805 13.0023 11.8086 13.0023 10.9822C13.0023 10.1557 12.3268 9.48377 11.5014 9.48377C10.6759 9.48377 10.0004 10.1557 10.0004 10.9822Z" fill="white" stroke="white"/>
<path d="M20 4.78223V8.77574C20 10.7725 19.3794 12.1303 18.1382 12.8791C17.8379 13.0588 17.4875 12.8192 17.4875 12.4697L17.4975 8.77574C17.4975 4.78223 15.2053 2.49594 11.2013 2.49594L5.10529 2.50593C4.75494 2.50593 4.51471 2.1565 4.69488 1.85698C5.44563 0.618994 6.80697 0 8.79894 0H15.2053C18.3984 0 20 1.5974 20 4.78223Z" fill="white"/>
</svg>
