<svg width="20" height="20" viewBox="0 0 20 20" fill="none" xmlns="http://www.w3.org/2000/svg">
<path d="M16.1756 13.0992C16.1745 13.1073 16.1737 13.1155 16.173 13.1237C16.0615 14.4287 15.6309 15.3158 14.9563 15.8867C14.2731 16.4649 13.2472 16.7976 11.7907 16.7976H11.3692C10.9098 16.7976 10.4717 17.0158 10.1953 17.3833L10.6949 17.7589L10.1953 17.3833L8.93094 19.0648L8.9301 19.0659C8.75031 19.3061 8.55909 19.375 8.41893 19.375C8.27877 19.375 8.08755 19.3061 7.90777 19.0659L7.90692 19.0647L6.64248 17.3833L6.64251 17.3832L6.63895 17.3786C6.49733 17.1939 6.30229 17.0562 6.12268 16.9656C5.9434 16.8753 5.71144 16.7976 5.46862 16.7976H5.04715C3.37659 16.7976 2.32762 16.5803 1.67359 16.0107C1.04108 15.4598 0.625 14.4364 0.625 12.3887V8.185C0.625 6.73425 0.960401 5.7118 1.54119 5.03043C2.11534 4.35685 3.00602 3.92705 4.30999 3.81585C4.31808 3.81516 4.32616 3.81431 4.33421 3.81331C4.55235 3.78611 4.78788 3.77606 5.04715 3.77606H11.7907C13.3749 3.77606 14.4501 4.1719 15.1334 4.85338C15.8164 5.53457 16.2129 6.60602 16.2129 8.185V12.3887C16.2129 12.6472 16.2028 12.8819 16.1756 13.0992Z" stroke="#A2B5C1" stroke-width="1.25" stroke-miterlimit="10" stroke-linecap="round" stroke-linejoin="round"/>
<path d="M19.375 5.03393V9.23763C19.375 10.6941 19.0394 11.7161 18.4591 12.3958C17.9978 12.9361 17.3318 13.3185 16.4101 13.5055C16.4102 13.4841 16.4103 13.4627 16.4103 13.4413V9.23763C16.4103 7.46415 15.9638 6.01864 14.9635 5.02097C13.9635 4.0236 12.5152 3.57869 10.7381 3.57869H3.99455C3.97282 3.57869 3.95107 3.57876 3.92931 3.57889C4.11735 2.66247 4.50177 1.99934 5.04414 1.53945C5.72773 0.959806 6.7538 0.625 8.20928 0.625H14.9528C16.537 0.625 17.6123 1.02084 18.2955 1.70232C18.9785 2.3835 19.375 3.45496 19.375 5.03393Z" stroke="#A2B5C1" stroke-width="1.25" stroke-miterlimit="10" stroke-linecap="round" stroke-linejoin="round"/>
<path d="M12.1121 10.7697H12.1216" stroke="#A2B5C1" stroke-width="2" stroke-linecap="round" stroke-linejoin="round"/>
<path d="M8.4242 10.7697H8.43367" stroke="#A2B5C1" stroke-width="2" stroke-linecap="round" stroke-linejoin="round"/>
<path d="M4.73632 10.7697H4.74579" stroke="#A2B5C1" stroke-width="2" stroke-linecap="round" stroke-linejoin="round"/>
</svg>
