<svg width="20" height="22" viewBox="0 0 20 22" fill="none" xmlns="http://www.w3.org/2000/svg">
<path d="M8.9399 21.6501C8.4599 21.6501 7.9899 21.5301 7.5499 21.2901C6.6699 20.8001 6.1399 19.9101 6.1399 18.9101V13.6101C6.1399 13.1101 5.8099 12.3601 5.4999 11.9801L1.7599 8.0201C1.1299 7.3901 0.649902 6.3101 0.649902 5.5001V3.2001C0.649902 1.6001 1.8599 0.350098 3.3999 0.350098H16.5999C18.1199 0.350098 19.3499 1.5801 19.3499 3.1001V5.3001C19.3499 6.3501 18.7199 7.5401 18.1299 8.1301L13.7999 11.9601C13.3799 12.3101 13.0499 13.0801 13.0499 13.7001V18.0001C13.0499 18.8901 12.4899 19.9201 11.7899 20.3401L10.4099 21.2301C9.9599 21.5101 9.4499 21.6501 8.9399 21.6501ZM3.3999 1.8501C2.6999 1.8501 2.1499 2.4401 2.1499 3.2001V5.5001C2.1499 5.8701 2.4499 6.5901 2.8299 6.9701L6.6399 10.9801C7.1499 11.6101 7.6499 12.6601 7.6499 13.6001V18.9001C7.6499 19.5501 8.0999 19.8701 8.2899 19.9701C8.7099 20.2001 9.2199 20.2001 9.6099 19.9601L10.9999 19.0701C11.2799 18.9001 11.5599 18.3601 11.5599 18.0001V13.7001C11.5599 12.6301 12.0799 11.4501 12.8299 10.8201L17.1099 7.0301C17.4499 6.6901 17.8599 5.8801 17.8599 5.2901V3.1001C17.8599 2.4101 17.2999 1.8501 16.6099 1.8501H3.3999V1.8501Z" fill="#fff"/>
<path d="M4.00017 9.74977C3.86017 9.74977 3.73017 9.70978 3.60017 9.63978C3.25017 9.41978 3.14017 8.94978 3.36017 8.59978L8.29017 0.699775C8.51017 0.349775 8.97017 0.239775 9.32017 0.459775C9.67017 0.679775 9.78017 1.13978 9.56017 1.48978L4.63017 9.38978C4.49017 9.61978 4.25017 9.74977 4.00017 9.74977Z" fill="#fff"/>
</svg>
