<svg width="24" height="24" viewBox="0 0 24 24" fill="none" xmlns="http://www.w3.org/2000/svg">
<path d="M6.38165 17.613C6.52478 18.4034 6.68642 19.1933 6.88141 19.9764C5.73627 19.2419 4.75901 18.2615 4.02059 17.1134C4.80356 17.3098 5.59478 17.4738 6.38165 17.613Z" fill="white" stroke="white"/>
<path d="M17.6325 17.6129C18.4241 17.4734 19.2096 17.3091 19.9887 17.1124C19.2475 18.2661 18.2579 19.2501 17.0989 19.9946C17.3083 19.2068 17.4901 18.4127 17.6325 17.6129Z" fill="white" stroke="white"/>
<path d="M17.633 6.3695C17.4927 5.57552 17.3159 4.78665 17.1072 4.00734C18.2682 4.75178 19.2548 5.73949 19.998 6.90136C19.2164 6.69426 18.4288 6.51539 17.633 6.3695Z" fill="white" stroke="white"/>
<path d="M6.38374 6.37466C5.58333 6.51205 4.78903 6.69232 4.00159 6.90108C4.74468 5.7441 5.72645 4.75592 6.87742 4.01516C6.68258 4.79623 6.52218 5.58303 6.38374 6.37466Z" fill="white" stroke="white"/>
<path d="M14.8706 6.02492C12.959 5.85169 11.0365 5.85169 9.12487 6.02494C9.34953 4.90342 9.62709 3.794 9.99054 2.72231C10.6456 2.58322 11.3098 2.5 11.9978 2.5C12.6804 2.5 13.3534 2.584 14.0055 2.72386C14.3689 3.80352 14.6462 4.90688 14.8706 6.02492Z" fill="white" stroke="white"/>
<path d="M6.59 15.4898C5.21 15.2398 3.85 14.9198 2.53 14.4698C2.45 14.4498 2.39 14.4598 2.31 14.4498C2.12 13.6598 2 12.8498 2 11.9998C2 11.1598 2.12 10.3398 2.31 9.55977C2.39 9.54977 2.45 9.54977 2.53 9.52977C3.86 9.08977 5.21 8.75977 6.59 8.50977C6.34 10.8298 6.34 13.1698 6.59 15.4898Z" fill="white"/>
<path d="M21.9963 11.9998C21.9963 12.8498 21.8763 13.6598 21.6863 14.4498C21.6063 14.4598 21.5462 14.4498 21.4662 14.4698C20.1362 14.9098 18.7763 15.2398 17.4062 15.4898C17.6662 13.1698 17.6662 10.8298 17.4062 8.50977C18.7763 8.75977 20.1462 9.07977 21.4662 9.52977C21.5462 9.54977 21.6063 9.55977 21.6863 9.55977C21.8763 10.3498 21.9963 11.1598 21.9963 11.9998Z" fill="white"/>
<path d="M15.4878 17.4102C15.2378 18.7902 14.9178 20.1502 14.4678 21.4702C14.4478 21.5502 14.4478 21.6102 14.4378 21.6902C13.6578 21.8802 12.8378 22.0002 11.9978 22.0002C11.1478 22.0002 10.3378 21.8802 9.54781 21.6902C9.53781 21.6102 9.54781 21.5502 9.52781 21.4702C9.08781 20.1402 8.75781 18.7902 8.50781 17.4102C9.66781 17.5402 10.8278 17.6302 11.9978 17.6302C13.1678 17.6302 14.3378 17.5402 15.4878 17.4102Z" fill="white"/>
<path d="M15.7633 15.7633C13.2622 16.0789 10.7378 16.0789 8.23667 15.7633C7.92111 13.2622 7.92111 10.7378 8.23667 8.23667C10.7378 7.92111 13.2622 7.92111 15.7633 8.23667C16.0789 10.7378 16.0789 13.2622 15.7633 15.7633Z" fill="white"/>
</svg>
