<svg width="16" height="16" viewBox="0 0 16 16" fill="none" xmlns="http://www.w3.org/2000/svg">
<path d="M7.99967 15.1663C4.04634 15.1663 0.833008 11.953 0.833008 7.99967C0.833008 4.04634 4.04634 0.833008 7.99967 0.833008C11.953 0.833008 15.1663 4.04634 15.1663 7.99967C15.1663 11.953 11.953 15.1663 7.99967 15.1663ZM7.99967 1.83301C4.59967 1.83301 1.83301 4.59967 1.83301 7.99967C1.83301 11.3997 4.59967 14.1663 7.99967 14.1663C11.3997 14.1663 14.1663 11.3997 14.1663 7.99967C14.1663 4.59967 11.3997 1.83301 7.99967 1.83301Z" fill="#164665"/>
<path d="M6.00016 14.5H5.33349C5.06016 14.5 4.83349 14.2733 4.83349 14C4.83349 13.7267 5.04682 13.5067 5.32016 13.5C4.27349 9.92667 4.27349 6.07333 5.32016 2.5C5.04682 2.49333 4.83349 2.27333 4.83349 2C4.83349 1.72667 5.06016 1.5 5.33349 1.5H6.00016C6.16016 1.5 6.31349 1.58 6.40682 1.70667C6.50016 1.84 6.52682 2.00667 6.47349 2.16C5.22016 5.92667 5.22016 10.0733 6.47349 13.8467C6.52682 14 6.50016 14.1667 6.40682 14.3C6.31349 14.42 6.16016 14.5 6.00016 14.5Z" fill="#164665"/>
<path d="M9.99961 14.4998C9.94628 14.4998 9.89295 14.4931 9.83961 14.4731C9.57961 14.3865 9.43295 14.0998 9.52628 13.8398C10.7796 10.0731 10.7796 5.92646 9.52628 2.15313C9.43961 1.89313 9.57961 1.60646 9.83961 1.51979C10.1063 1.43313 10.3863 1.57313 10.4729 1.83313C11.7996 5.80646 11.7996 10.1798 10.4729 14.1465C10.4063 14.3665 10.2063 14.4998 9.99961 14.4998Z" fill="#164665"/>
<path d="M8 11.4662C6.14 11.4662 4.28667 11.2062 2.5 10.6795C2.49333 10.9462 2.27333 11.1662 2 11.1662C1.72667 11.1662 1.5 10.9395 1.5 10.6662V9.99954C1.5 9.83954 1.58 9.68621 1.70667 9.59287C1.84 9.49954 2.00667 9.47287 2.16 9.52621C5.92667 10.7795 10.08 10.7795 13.8467 9.52621C14 9.47287 14.1667 9.49954 14.3 9.59287C14.4333 9.68621 14.5067 9.83954 14.5067 9.99954V10.6662C14.5067 10.9395 14.28 11.1662 14.0067 11.1662C13.7333 11.1662 13.5133 10.9529 13.5067 10.6795C11.7133 11.2062 9.86 11.4662 8 11.4662Z" fill="#164665"/>
<path d="M13.9995 6.49958C13.9462 6.49958 13.8929 6.49292 13.8395 6.47292C10.0729 5.21958 5.91953 5.21958 2.15286 6.47292C1.8862 6.55958 1.6062 6.41958 1.51953 6.15958C1.43953 5.89292 1.57953 5.61292 1.83953 5.52625C5.81286 4.19958 10.1862 4.19958 14.1529 5.52625C14.4129 5.61292 14.5595 5.89958 14.4662 6.15958C14.4062 6.36625 14.2062 6.49958 13.9995 6.49958Z" fill="#164665"/>
</svg>
