<svg width="33" height="32" viewBox="0 0 33 32" fill="none" xmlns="http://www.w3.org/2000/svg">
<path d="M29.6001 13.5998H17.0667V18.5332H24.4001C24.2667 19.7332 23.4667 21.5998 21.7334 22.7998C20.6667 23.5998 19.0667 24.1332 17.0667 24.1332C13.6001 24.1332 10.5334 21.8665 9.46673 18.5332C9.20007 17.7332 9.06673 16.7998 9.06673 15.8665C9.06673 14.9332 9.20007 13.9998 9.46673 13.1998C9.60007 12.9332 9.60007 12.6665 9.7334 12.5332C10.9334 9.73317 13.7334 7.73317 17.0667 7.73317C19.6001 7.73317 21.2001 8.79984 22.2667 9.73317L26.0001 5.99984C23.7334 3.99984 20.6667 2.6665 17.0667 2.6665C11.8667 2.6665 7.3334 5.59984 5.20007 9.99984C4.26673 11.8665 3.7334 13.8665 3.7334 15.9998C3.7334 18.1332 4.26673 20.1332 5.20007 21.9998C7.3334 26.3998 11.8667 29.3332 17.0667 29.3332C20.6667 29.3332 23.7334 28.1332 25.8667 26.1332C28.4001 23.8665 29.8667 20.3998 29.8667 16.2665C29.8667 15.1998 29.7334 14.3998 29.6001 13.5998Z" stroke="white" stroke-width="1.5" stroke-miterlimit="10" stroke-linecap="round" stroke-linejoin="round"/>
</svg>
