<svg width="33" height="32" viewBox="0 0 33 32" fill="none" xmlns="http://www.w3.org/2000/svg">
<path d="M32.0016 16.3556C32.0016 15.04 31.8927 14.08 31.657 13.0845H16.3282V19.0222H25.3258C25.1445 20.4978 24.1649 22.72 21.988 24.2133L21.9575 24.4121L26.8042 28.0916L27.14 28.1245C30.2238 25.3333 32.0016 21.2266 32.0016 16.3556Z" fill="#4285F4"/>
<path d="M16.3282 32C20.7363 32 24.4369 30.5777 27.14 28.1244L21.988 24.2132C20.6093 25.1555 18.759 25.8132 16.3282 25.8132C12.0107 25.8132 8.34638 23.0222 7.04013 19.1644L6.84866 19.1804L1.80901 23.0026L1.7431 23.1821C4.42788 28.4088 9.94264 32 16.3282 32Z" fill="#34A853"/>
<path d="M7.04013 19.1644C6.69546 18.1689 6.49599 17.1021 6.49599 16C6.49599 14.8977 6.69546 13.8311 7.02199 12.8355L7.01286 12.6235L1.91006 8.73987L1.7431 8.81769C0.636576 10.9866 0.00164795 13.4222 0.00164795 16C0.00164795 18.5778 0.636576 21.0132 1.7431 23.1821L7.04013 19.1644Z" fill="#FBBC05"/>
<path d="M16.3282 6.18662C19.3939 6.18662 21.4619 7.48439 22.6411 8.56891L27.2488 4.16C24.4189 1.58223 20.7363 0 16.3282 0C9.94264 0 4.42788 3.59108 1.7431 8.81771L7.02199 12.8355C8.34638 8.97777 12.0107 6.18662 16.3282 6.18662Z" fill="#EB4335"/>
</svg>
