<svg width="24" height="24" viewBox="0 0 24 24" fill="none" xmlns="http://www.w3.org/2000/svg">
<path d="M8.76048 1.72953L8.89048 1.72953C13.3305 1.72953 15.4705 3.47953 15.8405 7.39953C15.8805 7.80953 15.5805 8.17953 15.1605 8.21953C14.7605 8.25953 14.3805 7.94953 14.3405 7.53953C14.0505 4.39953 12.5705 3.22953 8.88047 3.22953L8.75047 3.22953C4.68047 3.22953 3.24047 4.66953 3.24047 8.73953L3.24047 15.2595C3.24047 19.3295 4.68047 20.7695 8.75047 20.7695L8.88047 20.7695C12.5905 20.7695 14.0705 19.5795 14.3405 16.3795C14.3905 15.9695 14.7405 15.6595 15.1605 15.6995C15.5805 15.7295 15.8805 16.0995 15.8505 16.5095C15.5105 20.4895 13.3605 22.2695 8.89047 22.2695L8.76047 22.2695C3.85047 22.2695 1.75047 20.1695 1.75047 15.2595L1.75047 8.73953C1.75047 3.82953 3.85048 1.72953 8.76048 1.72953Z" fill="#ED1C24"/>
<path d="M8.99988 11.25L20.3799 11.25C20.7899 11.25 21.1299 11.59 21.1299 12C21.1299 12.41 20.7899 12.75 20.3799 12.75L8.99988 12.75C8.58988 12.75 8.24988 12.41 8.24988 12C8.24988 11.59 8.58988 11.25 8.99988 11.25Z" fill="#ED1C24"/>
<path d="M18.1496 7.90016C18.3396 7.90016 18.5296 7.97016 18.6796 8.12016L22.0296 11.4702C22.3196 11.7602 22.3196 12.2402 22.0296 12.5302L18.6796 15.8802C18.3896 16.1702 17.9096 16.1702 17.6196 15.8802C17.3296 15.5902 17.3296 15.1102 17.6196 14.8202L20.4396 12.0002L17.6196 9.18016C17.3296 8.89016 17.3296 8.41016 17.6196 8.12016C17.7596 7.97016 17.9596 7.90016 18.1496 7.90016Z" fill="#ED1C24"/>
</svg>
