<svg width="165" height="37" viewBox="0 0 165 37" fill="none" xmlns="http://www.w3.org/2000/svg">
<path d="M20.768 13.344L19.872 18.368H13.792L10.688 36H4.416L7.488 18.368H1.472L2.336 13.344H20.768ZM28.117 21.408C29.0343 20.3413 30.069 19.488 31.221 18.848C32.3943 18.208 33.589 17.888 34.805 17.888L33.589 24.608H31.797C30.389 24.608 29.2797 24.8853 28.469 25.44C27.6797 25.9733 27.1677 26.912 26.933 28.256L25.557 36H19.285L22.421 18.048H28.725L28.117 21.408ZM55.0665 18.048L51.8985 36H45.5945L46.1065 33.024C45.4025 33.984 44.5065 34.752 43.4185 35.328C42.3518 35.8827 41.1678 36.16 39.8665 36.16C38.1385 36.16 36.7945 35.6587 35.8345 34.656C34.8745 33.6533 34.3945 32.256 34.3945 30.464C34.3945 29.824 34.4585 29.152 34.5865 28.448L36.4425 18.048H42.6825L40.9865 27.68C40.9438 27.872 40.9225 28.1387 40.9225 28.48C40.9225 29.2693 41.1358 29.888 41.5625 30.336C42.0105 30.7627 42.6292 30.976 43.4185 30.976C44.3572 30.976 45.1465 30.6773 45.7865 30.08C46.4478 29.4827 46.8745 28.64 47.0665 27.552V27.712L48.7625 18.048H55.0665ZM64.5315 17.824C67.1128 17.824 69.0862 18.4 70.4515 19.552C71.8168 20.704 72.5955 22.2293 72.7875 24.128H66.6115C66.5902 23.488 66.3342 23.008 65.8435 22.688C65.3742 22.368 64.7555 22.208 63.9875 22.208C63.4328 22.208 62.9955 22.304 62.6755 22.496C62.3555 22.6667 62.1955 22.944 62.1955 23.328C62.1955 23.712 62.4515 24.0213 62.9635 24.256C63.4755 24.4907 64.2755 24.7467 65.3635 25.024C66.6648 25.344 67.7528 25.6853 68.6275 26.048C69.5235 26.3893 70.2915 26.912 70.9315 27.616C71.5928 28.2987 71.9235 29.2053 71.9235 30.336C71.9235 30.784 71.8808 31.1893 71.7955 31.552C71.5182 32.9387 70.6968 34.0693 69.3315 34.944C67.9875 35.7973 66.1635 36.224 63.8595 36.224C61.3848 36.224 59.3902 35.68 57.8755 34.592C56.3608 33.4827 55.5502 31.9253 55.4435 29.92H61.6195C61.5555 30.56 61.7795 31.0507 62.2915 31.392C62.8248 31.712 63.5182 31.872 64.3715 31.872C65.3955 31.872 65.9822 31.5307 66.1315 30.848C66.2168 30.3787 66.0035 30.016 65.4915 29.76C64.9795 29.504 64.1368 29.2373 62.9635 28.96C61.6408 28.6187 60.5528 28.288 59.6995 27.968C58.8675 27.648 58.1315 27.1467 57.4915 26.464C56.8728 25.7813 56.5635 24.8747 56.5635 23.744C56.5635 23.5093 56.6062 23.1147 56.6915 22.56C56.9262 21.1733 57.7155 20.0427 59.0595 19.168C60.4035 18.272 62.2275 17.824 64.5315 17.824ZM81.6333 29.088C81.6119 29.1947 81.6013 29.344 81.6013 29.536C81.6013 29.92 81.7079 30.1973 81.9213 30.368C82.1346 30.5387 82.4866 30.624 82.9773 30.624H84.7053L83.7133 36H81.1533C77.1639 36 75.1693 34.304 75.1693 30.912C75.1693 30.3147 75.2333 29.664 75.3613 28.96L76.3853 23.296H74.0493L74.9773 18.048H77.3133L78.0813 13.696H84.3533L83.5853 18.048H86.8493L85.9213 23.296H82.6573L81.6333 29.088ZM95.8358 21.408C96.7531 20.3413 97.7878 19.488 98.9398 18.848C100.113 18.208 101.308 17.888 102.524 17.888L101.308 24.608H99.5158C98.1078 24.608 96.9984 24.8853 96.1878 25.44C95.3984 25.9733 94.8864 26.912 94.6518 28.256L93.2758 36H87.0038L90.1398 18.048H96.4438L95.8358 21.408ZM112.769 17.824C115.159 17.824 117.036 18.4533 118.401 19.712C119.767 20.9707 120.449 22.6773 120.449 24.832C120.449 25.3653 120.396 25.984 120.289 26.688C120.097 27.4133 119.948 27.904 119.841 28.16H108.001C107.98 28.3307 107.969 28.576 107.969 28.896C107.969 30.432 108.684 31.2 110.113 31.2C110.732 31.2 111.265 31.0507 111.713 30.752C112.183 30.4533 112.535 30.0587 112.769 29.568H119.425C118.7 31.5307 117.452 33.1307 115.681 34.368C113.911 35.6053 111.863 36.224 109.537 36.224C107.191 36.224 105.335 35.5733 103.969 34.272C102.604 32.9707 101.921 31.1787 101.921 28.896C101.921 28.2133 101.985 27.488 102.113 26.72C102.433 24.9067 103.095 23.328 104.097 21.984C105.121 20.64 106.38 19.616 107.873 18.912C109.367 18.1867 110.999 17.824 112.769 17.824ZM114.113 25.536C114.156 25.3653 114.177 25.1307 114.177 24.832C114.177 24.1493 113.964 23.6373 113.537 23.296C113.111 22.9333 112.567 22.752 111.905 22.752C111.073 22.752 110.359 22.9867 109.761 23.456C109.164 23.9253 108.737 24.6187 108.481 25.536H114.113ZM132.551 17.824C134.94 17.824 136.817 18.4533 138.183 19.712C139.548 20.9707 140.231 22.6773 140.231 24.832C140.231 25.3653 140.177 25.984 140.071 26.688C139.879 27.4133 139.729 27.904 139.623 28.16H127.783C127.761 28.3307 127.751 28.576 127.751 28.896C127.751 30.432 128.465 31.2 129.895 31.2C130.513 31.2 131.047 31.0507 131.495 30.752C131.964 30.4533 132.316 30.0587 132.551 29.568H139.207C138.481 31.5307 137.233 33.1307 135.463 34.368C133.692 35.6053 131.644 36.224 129.319 36.224C126.972 36.224 125.116 35.5733 123.751 34.272C122.385 32.9707 121.703 31.1787 121.703 28.896C121.703 28.2133 121.767 27.488 121.895 26.72C122.215 24.9067 122.876 23.328 123.879 21.984C124.903 20.64 126.161 19.616 127.655 18.912C129.148 18.1867 130.78 17.824 132.551 17.824ZM133.895 25.536C133.937 25.3653 133.959 25.1307 133.959 24.832C133.959 24.1493 133.745 23.6373 133.319 23.296C132.892 22.9333 132.348 22.752 131.687 22.752C130.855 22.752 130.14 22.9867 129.543 23.456C128.945 23.9253 128.519 24.6187 128.263 25.536H133.895Z" fill="white"/>
<path d="M149.5 11.25H156.5C156.91 11.25 157.25 10.91 157.25 10.5C157.25 10.09 156.91 9.75 156.5 9.75H149.5C149.09 9.75 148.75 10.09 148.75 10.5C148.75 10.91 149.09 11.25 149.5 11.25Z" fill="#FD6919"/>
<path d="M149 22.3199C149.34 22.3199 149.68 22.22 149.97 22.03L154.23 19.1899H158C161.44 19.1899 163.75 16.8799 163.75 13.4399V7.43994C163.75 3.99994 161.44 1.68994 158 1.68994H148C144.56 1.68994 142.25 3.99994 142.25 7.43994V13.4399C142.25 16.6199 144.23 18.84 147.25 19.15V20.5699C147.25 21.2199 147.6 21.8099 148.17 22.1099C148.43 22.2499 148.72 22.3199 149 22.3199ZM158 3.17993C160.58 3.17993 162.25 4.84993 162.25 7.42993V13.4299C162.25 16.0099 160.58 17.6799 158 17.6799H154C153.85 17.6799 153.71 17.7199 153.58 17.8099L149.13 20.77C149.02 20.84 148.92 20.81 148.87 20.78C148.82 20.75 148.74 20.6899 148.74 20.5599V18.4299C148.74 18.0199 148.4 17.6799 147.99 17.6799C145.41 17.6799 143.74 16.0099 143.74 13.4299V7.42993C143.74 4.84993 145.41 3.17993 147.99 3.17993H158Z" fill="white"/>
</svg>
