<svg width="24" height="24" viewBox="0 0 24 24" fill="none" xmlns="http://www.w3.org/2000/svg">
<path d="M8.76048 1.73002L8.89048 1.73002C13.3305 1.73002 15.4705 3.48002 15.8405 7.40002C15.8805 7.81002 15.5805 8.18002 15.1605 8.22002C14.7605 8.26002 14.3805 7.95002 14.3405 7.54002C14.0505 4.40002 12.5705 3.23002 8.88047 3.23002L8.75047 3.23002C4.68047 3.23002 3.24047 4.67002 3.24047 8.74002L3.24047 15.26C3.24047 19.33 4.68047 20.77 8.75047 20.77L8.88047 20.77C12.5905 20.77 14.0705 19.58 14.3405 16.38C14.3905 15.97 14.7405 15.66 15.1605 15.7C15.5805 15.73 15.8805 16.1 15.8505 16.51C15.5105 20.49 13.3605 22.27 8.89047 22.27L8.76047 22.27C3.85047 22.27 1.75047 20.17 1.75047 15.26L1.75047 8.74002C1.75047 3.83002 3.85048 1.73002 8.76048 1.73002Z" fill="white"/>
<path d="M8.99988 11.25L20.3799 11.25C20.7899 11.25 21.1299 11.59 21.1299 12C21.1299 12.41 20.7899 12.75 20.3799 12.75L8.99988 12.75C8.58988 12.75 8.24988 12.41 8.24988 12C8.24988 11.59 8.58988 11.25 8.99988 11.25Z" fill="white"/>
<path d="M18.1496 7.90016C18.3396 7.90016 18.5296 7.97016 18.6796 8.12016L22.0296 11.4702C22.3196 11.7602 22.3196 12.2402 22.0296 12.5302L18.6796 15.8802C18.3896 16.1702 17.9096 16.1702 17.6196 15.8802C17.3296 15.5902 17.3296 15.1102 17.6196 14.8202L20.4396 12.0002L17.6196 9.18016C17.3296 8.89016 17.3296 8.41016 17.6196 8.12016C17.7596 7.97016 17.9596 7.90016 18.1496 7.90016Z" fill="white"/>
</svg>
