<svg width="165" height="37" viewBox="0 0 165 37" fill="none" xmlns="http://www.w3.org/2000/svg">
<path d="M21.152 13.44L20.256 18.432H14.272L11.168 36H4.864L7.968 18.432H2.016L2.912 13.44H21.152ZM28.3685 21.312C29.2432 20.2667 30.2352 19.4347 31.3445 18.816C32.4538 18.1973 33.5845 17.888 34.7365 17.888L33.5845 24.576H31.8245C30.5018 24.576 29.4672 24.8213 28.7205 25.312C27.9738 25.8027 27.4725 26.656 27.2165 27.872L25.7765 36H19.4725L22.6725 18.048H28.9445L28.3685 21.312ZM55.353 18.048L52.153 36H45.881L46.329 33.44C45.625 34.2507 44.761 34.912 43.737 35.424C42.7343 35.9147 41.625 36.16 40.409 36.16C38.6383 36.16 37.2623 35.6587 36.281 34.656C35.2997 33.6533 34.809 32.256 34.809 30.464C34.809 29.8453 34.873 29.184 35.001 28.48L36.825 18.048H43.097L41.401 27.68C41.337 27.9573 41.305 28.2347 41.305 28.512C41.305 29.28 41.529 29.888 41.977 30.336C42.425 30.7627 43.033 30.976 43.801 30.976C44.697 30.976 45.4543 30.6987 46.073 30.144C46.6917 29.5893 47.1077 28.8213 47.321 27.84L49.049 18.048H55.353ZM63.5625 36.224C62.0692 36.224 60.7358 36 59.5625 35.552C58.3892 35.104 57.4718 34.4747 56.8105 33.664C56.1492 32.832 55.8185 31.8827 55.8185 30.816C55.8185 30.624 55.8398 30.336 55.8825 29.952H61.9305C61.9092 30.5493 62.0905 31.008 62.4745 31.328C62.8585 31.648 63.3918 31.808 64.0745 31.808C64.6078 31.808 65.0452 31.7013 65.3865 31.488C65.7492 31.2747 65.9305 30.9973 65.9305 30.656C65.9305 30.2507 65.7065 29.9413 65.2585 29.728C64.8105 29.4933 64.0638 29.2053 63.0185 28.864C61.8025 28.48 60.7998 28.1067 60.0105 27.744C59.2212 27.3813 58.5278 26.848 57.9305 26.144C57.3545 25.44 57.0665 24.5333 57.0665 23.424C57.0665 22.3573 57.3758 21.3973 57.9945 20.544C58.6345 19.6907 59.5305 19.0293 60.6825 18.56C61.8345 18.0693 63.1678 17.824 64.6825 17.824C66.3038 17.824 67.7012 18.1013 68.8745 18.656C70.0692 19.1893 70.9545 19.936 71.5305 20.896C72.1278 21.856 72.3945 22.9227 72.3305 24.096H66.6985C66.7198 23.52 66.5492 23.072 66.1865 22.752C65.8238 22.4107 65.3012 22.24 64.6185 22.24C64.1278 22.24 63.7225 22.3467 63.4025 22.56C63.0825 22.7733 62.9225 23.0507 62.9225 23.392C62.9225 23.7973 63.1465 24.1173 63.5945 24.352C64.0638 24.5867 64.8425 24.8853 65.9305 25.248C67.1252 25.632 68.1172 26.016 68.9065 26.4C69.7172 26.7627 70.4105 27.2853 70.9865 27.968C71.5625 28.6293 71.8505 29.4827 71.8505 30.528C71.8505 32.2987 71.0825 33.696 69.5465 34.72C68.0105 35.7227 66.0158 36.224 63.5625 36.224ZM82.39 29.28C82.3687 29.3867 82.358 29.5147 82.358 29.664C82.358 30.0053 82.454 30.2613 82.646 30.432C82.8593 30.5813 83.2007 30.656 83.67 30.656H85.494L84.534 36H81.782C77.878 36 75.926 34.3573 75.926 31.072C75.926 30.5173 75.99 29.888 76.118 29.184L77.174 23.264H74.966L75.894 18.048H78.102L78.87 13.696H85.174L84.406 18.048H87.638L86.71 23.264H83.478L82.39 29.28ZM96.2748 21.312C97.1494 20.2667 98.1414 19.4347 99.2508 18.816C100.36 18.1973 101.491 17.888 102.643 17.888L101.491 24.576H99.7308C98.4081 24.576 97.3734 24.8213 96.6267 25.312C95.8801 25.8027 95.3788 26.656 95.1228 27.872L93.6828 36H87.3788L90.5788 18.048H96.8508L96.2748 21.312ZM113.019 17.824C115.366 17.824 117.222 18.4533 118.587 19.712C119.974 20.9707 120.667 22.688 120.667 24.864C120.667 25.5893 120.614 26.2293 120.507 26.784C120.379 27.4667 120.251 27.9573 120.123 28.256H108.251C108.23 28.384 108.219 28.576 108.219 28.832C108.219 29.6427 108.411 30.24 108.795 30.624C109.201 31.008 109.734 31.2 110.395 31.2C111.441 31.2 112.273 30.7307 112.891 29.792H119.547C119.057 31.0293 118.321 32.1387 117.339 33.12C116.379 34.08 115.238 34.8373 113.915 35.392C112.614 35.9467 111.227 36.224 109.755 36.224C107.409 36.224 105.542 35.584 104.155 34.304C102.769 33.024 102.075 31.264 102.075 29.024C102.075 28.384 102.139 27.712 102.267 27.008C102.609 25.1307 103.281 23.5093 104.283 22.144C105.307 20.7573 106.566 19.6907 108.059 18.944C109.574 18.1973 111.227 17.824 113.019 17.824ZM114.331 25.44C114.374 25.1413 114.395 24.9493 114.395 24.864C114.395 24.1813 114.182 23.6693 113.755 23.328C113.329 22.9653 112.774 22.784 112.091 22.784C111.302 22.784 110.619 23.008 110.043 23.456C109.467 23.904 109.041 24.5653 108.763 25.44H114.331ZM132.738 17.824C135.085 17.824 136.941 18.4533 138.306 19.712C139.693 20.9707 140.386 22.688 140.386 24.864C140.386 25.5893 140.333 26.2293 140.226 26.784C140.098 27.4667 139.97 27.9573 139.842 28.256H127.97C127.949 28.384 127.938 28.576 127.938 28.832C127.938 29.6427 128.13 30.24 128.514 30.624C128.919 31.008 129.453 31.2 130.114 31.2C131.159 31.2 131.991 30.7307 132.61 29.792H139.266C138.775 31.0293 138.039 32.1387 137.058 33.12C136.098 34.08 134.957 34.8373 133.634 35.392C132.333 35.9467 130.946 36.224 129.474 36.224C127.127 36.224 125.261 35.584 123.874 34.304C122.487 33.024 121.794 31.264 121.794 29.024C121.794 28.384 121.858 27.712 121.986 27.008C122.327 25.1307 122.999 23.5093 124.002 22.144C125.026 20.7573 126.285 19.6907 127.778 18.944C129.293 18.1973 130.946 17.824 132.738 17.824ZM134.05 25.44C134.093 25.1413 134.114 24.9493 134.114 24.864C134.114 24.1813 133.901 23.6693 133.474 23.328C133.047 22.9653 132.493 22.784 131.81 22.784C131.021 22.784 130.338 23.008 129.762 23.456C129.186 23.904 128.759 24.5653 128.482 25.44H134.05Z" fill="#164665"/>
<path d="M149.5 11.25H156.5C156.91 11.25 157.25 10.91 157.25 10.5C157.25 10.09 156.91 9.75 156.5 9.75H149.5C149.09 9.75 148.75 10.09 148.75 10.5C148.75 10.91 149.09 11.25 149.5 11.25Z" fill="#FD6919"/>
<path d="M149 22.3195C149.34 22.3195 149.68 22.2195 149.97 22.0295L154.23 19.1895H158C161.44 19.1895 163.75 16.8795 163.75 13.4395V7.43945C163.75 3.99945 161.44 1.68945 158 1.68945H148C144.56 1.68945 142.25 3.99945 142.25 7.43945V13.4395C142.25 16.6195 144.23 18.8395 147.25 19.1495V20.5695C147.25 21.2195 147.6 21.8094 148.17 22.1094C148.43 22.2494 148.72 22.3195 149 22.3195ZM158 3.17944C160.58 3.17944 162.25 4.84944 162.25 7.42944V13.4294C162.25 16.0094 160.58 17.6794 158 17.6794H154C153.85 17.6794 153.71 17.7194 153.58 17.8094L149.13 20.7695C149.02 20.8395 148.92 20.8095 148.87 20.7795C148.82 20.7495 148.74 20.6894 148.74 20.5594V18.4294C148.74 18.0194 148.4 17.6794 147.99 17.6794C145.41 17.6794 143.74 16.0094 143.74 13.4294V7.42944C143.74 4.84944 145.41 3.17944 147.99 3.17944H158Z" fill="#164665"/>
</svg>
