<svg width="187" height="240" viewBox="0 0 187 240" fill="none" xmlns="http://www.w3.org/2000/svg">
<circle cx="93.2188" cy="93.2188" r="93.2188" fill="#164665" fill-opacity="0.08"/>
<rect x="55.4023" y="89.96" width="93.8707" height="130.376" rx="10.4301" transform="rotate(2.5 55.4023 89.96)" fill="#EEEEEE"/>
<rect x="56.648" y="91.3193" width="91.2632" height="127.768" rx="9.12632" transform="rotate(2.5 56.648 91.3193)" stroke="#A9D0F6" stroke-opacity="0.75" stroke-width="2.60752"/>
<rect x="3.85547" y="84.7969" width="93.8707" height="130.376" rx="10.4301" transform="rotate(-7.5 3.85547 84.7969)" fill="#FAFAFA"/>
<rect x="2.39269" y="83.6744" width="96.4782" height="132.984" rx="11.7338" transform="rotate(-7.5 2.39269 83.6744)" stroke="#A9D0F6" stroke-opacity="0.75" stroke-width="2.60752"/>
<path d="M5.21687 95.1377C4.46499 89.4266 8.48522 84.1874 14.1963 83.4355L86.5822 73.9057C92.2933 73.1538 97.5326 77.174 98.2845 82.8851L100.837 102.274L7.76949 114.527L5.21687 95.1377Z" fill="#EEEEEE"/>
<rect x="117.166" y="76.4551" width="3.91128" height="13.0376" rx="1.95564" transform="rotate(82.5 117.166 76.4551)" fill="#A9D0F6" fill-opacity="0.75"/>
<rect x="81.4443" y="54.8604" width="3.91128" height="13.0376" rx="1.95564" transform="rotate(-7.5 81.4443 54.8604)" fill="#A9D0F6" fill-opacity="0.75"/>
<rect x="104.361" y="58.417" width="3.91128" height="13.0376" rx="1.95564" transform="rotate(37.5 104.361 58.417)" fill="#A9D0F6" fill-opacity="0.75"/>
<rect x="17.499" y="118.507" width="75.6181" height="5.21504" rx="2.60752" transform="rotate(-7.5 17.499 118.507)" fill="#DCDCDC"/>
<rect x="20.9043" y="144.36" width="75.6181" height="5.21504" rx="2.60752" transform="rotate(-7.5 20.9043 144.36)" fill="#DCDCDC"/>
<rect x="24.3066" y="170.211" width="75.6181" height="5.21504" rx="2.60752" transform="rotate(-7.5 24.3066 170.211)" fill="#DCDCDC"/>
<rect x="18.8613" y="128.848" width="27.379" height="5.21504" rx="2.60752" transform="rotate(-7.5 18.8613 128.848)" fill="#EEEEEE"/>
<rect x="22.2646" y="154.701" width="27.379" height="5.21504" rx="2.60752" transform="rotate(-7.5 22.2646 154.701)" fill="#EEEEEE"/>
<rect x="25.668" y="180.553" width="27.379" height="5.21504" rx="2.60752" transform="rotate(-7.5 25.668 180.553)" fill="#EEEEEE"/>
</svg>
