<svg width="20" height="20" viewBox="0 0 20 20" fill="none" xmlns="http://www.w3.org/2000/svg">
<path d="M19.5 5.80863V5.81V14.19C19.5 15.9105 18.9888 17.2237 18.1057 18.1064C17.2226 18.989 15.9086 19.5 14.1871 19.5H5.8129C4.09136 19.5 2.7775 18.989 1.89445 18.1053C1.01137 17.2216 0.5 15.9059 0.5 14.18V5.81C0.5 4.08951 1.01115 2.77628 1.89423 1.89364C2.77734 1.01097 4.09135 0.5 5.8129 0.5H14.1971C15.9187 0.5 17.2325 1.01101 18.1143 1.89342C18.9959 2.77569 19.5047 4.08845 19.5 5.80863ZM11.2554 14V11.25H14.007C14.6931 11.25 15.2574 10.6864 15.2574 10C15.2574 9.31362 14.6931 8.75 14.007 8.75H11.2554V6C11.2554 5.31362 10.6911 4.75 10.005 4.75C9.31887 4.75 8.75461 5.31362 8.75461 6V8.75H6.00299C5.31688 8.75 4.75262 9.31362 4.75262 10C4.75262 10.6864 5.31688 11.25 6.00299 11.25H8.75461V14C8.75461 14.6864 9.31887 15.25 10.005 15.25C10.6911 15.25 11.2554 14.6864 11.2554 14Z" fill="#164665" stroke="#164665"/>
</svg>
