<svg width="77" height="13" viewBox="0 0 77 13" fill="none" xmlns="http://www.w3.org/2000/svg">
<path fill-rule="evenodd" clip-rule="evenodd" d="M7.62991 0.939221L8.77542 3.24586C8.80276 3.30153 8.83792 3.35719 8.87893 3.4109L8.91897 3.45973C8.94925 3.49489 8.98147 3.53004 9.01663 3.56227C9.20901 3.74586 9.46487 3.89039 9.69339 3.93336L11.7657 4.27711C12.1348 4.33864 12.4248 4.45778 12.6309 4.61891C12.8623 4.80055 12.9873 5.03395 12.9991 5.2986C13.0137 5.64137 12.836 6.03492 12.4483 6.42848L10.8311 8.05641C10.5625 8.32594 10.4082 8.85817 10.4981 9.24196L10.961 11.2547C11.3262 12.8416 10.4815 13.4627 9.09182 12.6287L7.15042 11.4675C6.80081 11.2547 6.21585 11.2547 5.86624 11.4675L3.92386 12.6287C2.53518 13.4548 1.68948 12.8416 2.05569 11.2547L2.51858 9.24196C2.59182 8.84938 2.43753 8.31813 2.16897 8.04762L0.551786 6.41969C-0.39841 5.46266 -0.089816 4.49781 1.2344 4.26832L3.30667 3.92555C3.65628 3.86793 4.07034 3.55739 4.22464 3.23805L5.37014 0.931409C5.99612 -0.311756 7.00393 -0.311756 7.62991 0.939221ZM23.6299 0.939221L24.7754 3.24586C24.7949 3.2859 24.8184 3.32594 24.8457 3.365C24.8741 3.40699 24.9073 3.44801 24.9424 3.48805L25.0098 3.55739C25.1192 3.66188 25.2481 3.75367 25.3809 3.82203C25.4854 3.87574 25.5918 3.91481 25.6934 3.93336L27.7657 4.27711C28.5293 4.40406 28.9551 4.77906 28.9971 5.25953C29.0274 5.61207 28.8506 6.02028 28.4483 6.42848L26.8311 8.05641C26.5625 8.32594 26.4082 8.85817 26.4981 9.24196L26.961 11.2547C27.3262 12.8416 26.4815 13.4627 25.0918 12.6287L23.1504 11.4675C22.8008 11.2547 22.2158 11.2547 21.8662 11.4675L19.9239 12.6287C18.5352 13.4548 17.6895 12.8416 18.0557 11.2547L18.5186 9.24196C18.5918 8.84938 18.4375 8.31813 18.169 8.04762L16.5518 6.41969C15.6016 5.46266 15.9102 4.49781 17.2344 4.26832L19.3067 3.92555C19.4229 3.90699 19.5469 3.85914 19.666 3.79274C19.7549 3.74293 19.8408 3.68239 19.9199 3.615C20.0508 3.5027 20.1602 3.37086 20.2246 3.23805L21.3701 0.931409C21.9961 -0.311756 23.0039 -0.311756 23.6299 0.939221ZM40.7754 3.24586L39.6299 0.939221C39.3682 0.415784 39.0391 0.111096 38.6992 0.0251585C38.459 -0.0353884 38.2139 0.0134398 37.9824 0.170666C37.7588 0.32301 37.5489 0.57594 37.3701 0.931409L36.2246 3.23805C36.1533 3.38649 36.0254 3.53297 35.8741 3.65309C35.6992 3.79078 35.4942 3.8943 35.3067 3.92555L33.2344 4.26832C31.9102 4.49781 31.6016 5.46266 32.5518 6.41969L34.169 8.04762C34.3194 8.19899 34.4336 8.43141 34.4922 8.67653C34.5391 8.86891 34.5508 9.0691 34.5186 9.24196L34.0557 11.2547C33.6895 12.8416 34.5352 13.4548 35.9239 12.6287L37.8662 11.4675C38.2158 11.2547 38.8008 11.2547 39.1504 11.4675L41.0918 12.6287C42.4815 13.4627 43.3262 12.8416 42.961 11.2547L42.4981 9.24196C42.4707 9.12379 42.4658 8.99098 42.4805 8.85719C42.4981 8.70192 42.541 8.54371 42.6045 8.40114C42.6641 8.26735 42.7412 8.14723 42.8311 8.05641L44.4483 6.42848C44.7871 6.08473 44.9658 5.74098 44.9951 5.42946C45.0137 5.23414 44.9737 5.0525 44.877 4.89235C44.8379 4.82789 44.7901 4.76735 44.7334 4.71071C44.625 4.60231 44.4844 4.50856 44.3116 4.43336C44.1553 4.365 43.9727 4.31227 43.7657 4.27711L41.6934 3.93336C41.3438 3.86793 40.9297 3.5652 40.7754 3.24586ZM55.6299 0.939221L56.7754 3.24586C56.9297 3.5652 57.3438 3.86793 57.6934 3.93336L59.7657 4.27711C61.0899 4.49781 61.3985 5.46266 60.4483 6.42848L58.8311 8.05641C58.7227 8.16481 58.6328 8.31617 58.5703 8.48317C58.5244 8.60719 58.4932 8.73903 58.4795 8.86891C58.4658 8.99879 58.4707 9.12672 58.4981 9.24196L58.961 11.2547C59.3262 12.8416 58.4815 13.4627 57.0918 12.6287L55.1504 11.4675C55.0088 11.3816 54.8282 11.3298 54.6407 11.3132C54.3653 11.2898 54.0742 11.3406 53.8662 11.4675L51.9239 12.6287C50.5352 13.4548 49.6895 12.8416 50.0557 11.2547L50.5186 9.24196C50.5918 8.84938 50.4375 8.31813 50.169 8.04762L48.5518 6.41969C47.6016 5.46266 47.9102 4.49781 49.2344 4.26832L51.3067 3.92555C51.6563 3.86793 52.0703 3.55739 52.2246 3.23805L53.3701 0.931409C53.9961 -0.311756 55.0039 -0.311756 55.6299 0.939221ZM72.7754 3.24586L71.6299 0.939221C71.0039 -0.311756 69.9961 -0.311756 69.3701 0.931409L68.2246 3.23805C68.0703 3.55739 67.6563 3.86793 67.3067 3.92555L65.2344 4.26832C63.9102 4.49781 63.6016 5.46266 64.5518 6.41969L66.169 8.04762C66.4375 8.31813 66.5918 8.84938 66.5186 9.24196L66.0557 11.2547C65.6895 12.8416 66.5352 13.4548 67.9239 12.6287L69.8662 11.4675C70.2158 11.2547 70.8008 11.2547 71.1504 11.4675L73.0918 12.6287C74.4815 13.4627 75.3262 12.8416 74.961 11.2547L74.4981 9.24196C74.4082 8.85817 74.5625 8.32594 74.8311 8.05641L76.4483 6.42848C77.3985 5.46266 77.0899 4.49781 75.7657 4.27711L73.6934 3.93336C73.3438 3.86793 72.9297 3.5652 72.7754 3.24586Z" fill="#A9D0F6"/>
</svg>
