<svg width="77" height="13" viewBox="0 0 77 13" fill="none" xmlns="http://www.w3.org/2000/svg">
<path fill-rule="evenodd" clip-rule="evenodd" d="M7.62948 0.939451L8.77518 3.24622C8.92957 3.56524 9.34397 3.8679 9.69337 3.93334L11.7654 4.2769C13.0899 4.49776 13.3986 5.46301 12.4479 6.42825L10.8309 8.05607C10.5628 8.32601 10.4084 8.85772 10.4978 9.24218L10.961 11.2545C11.3266 12.8414 10.4816 13.4631 9.09208 12.6287L7.15007 11.4671C6.80067 11.2545 6.21563 11.2545 5.86623 11.4671L3.92423 12.6287C2.53476 13.4549 1.6897 12.8414 2.05535 11.2545L2.51851 9.24218C2.59164 8.84954 2.43725 8.31783 2.16911 8.04789L0.552122 6.42007C-0.398568 5.46301 -0.0897972 4.49776 1.23467 4.26872L3.30668 3.92516C3.65608 3.8679 4.07049 3.55706 4.22487 3.23804L5.37058 0.931271C5.99624 -0.312093 7.00381 -0.312093 7.62948 0.939451ZM23.6295 0.939451L24.7752 3.24622C24.9296 3.56524 25.344 3.8679 25.6934 3.93334L27.7654 4.2769C29.0899 4.49776 29.3986 5.46301 28.4479 6.42825L26.8309 8.05607C26.5628 8.32601 26.4084 8.85772 26.4978 9.24218L26.961 11.2545C27.3266 12.8414 26.4816 13.4631 25.0921 12.6287L23.1501 11.4671C22.8007 11.2545 22.2156 11.2545 21.8662 11.4671L19.9242 12.6287C18.5348 13.4549 17.6897 12.8414 18.0553 11.2545L18.5185 9.24218C18.5916 8.84954 18.4373 8.31783 18.1691 8.04789L16.5521 6.42007C15.6014 5.46301 15.9102 4.49776 17.2347 4.26872L19.3067 3.92516C19.6561 3.8679 20.0705 3.55706 20.2249 3.23804L21.3706 0.931271C21.9962 -0.312093 23.0038 -0.312093 23.6295 0.939451ZM40.7752 3.24622L39.6295 0.939451C39.0038 -0.312093 37.9962 -0.312093 37.3706 0.931271L36.2249 3.23804C36.0705 3.55706 35.6561 3.8679 35.3067 3.92516L33.2347 4.26872C31.9102 4.49776 31.6014 5.46301 32.5521 6.42007L34.1691 8.04789C34.4372 8.31783 34.5916 8.84954 34.5185 9.24218L34.0553 11.2545C33.6897 12.8414 34.5348 13.4549 35.9242 12.6287L37.8662 11.4671C38.2156 11.2545 38.8007 11.2545 39.1501 11.4671L41.0921 12.6287C42.4815 13.4631 43.3266 12.8414 42.961 11.2545L42.4978 9.24218C42.4084 8.85772 42.5628 8.32601 42.8309 8.05607L44.4479 6.42825C45.3986 5.46301 45.0899 4.49776 43.7654 4.2769L41.6934 3.93334C41.344 3.8679 40.9296 3.56524 40.7752 3.24622ZM55.6295 0.939451L56.7752 3.24622C56.9296 3.56524 57.344 3.8679 57.6934 3.93334L59.7654 4.2769C61.0899 4.49776 61.3986 5.46301 60.4479 6.42825L58.8309 8.05607C58.5628 8.32601 58.4084 8.85772 58.4978 9.24218L58.961 11.2545C59.3266 12.8414 58.4815 13.4631 57.0921 12.6287L55.1501 11.4671C54.8007 11.2545 54.2156 11.2545 53.8662 11.4671L51.9242 12.6287C50.5348 13.4549 49.6897 12.8414 50.0553 11.2545L50.5185 9.24218C50.5916 8.84954 50.4372 8.31783 50.1691 8.04789L48.5521 6.42007C47.6014 5.46301 47.9102 4.49776 49.2347 4.26872L51.3067 3.92516C51.6561 3.8679 52.0705 3.55706 52.2249 3.23804L53.3706 0.931271C53.9962 -0.312093 55.0038 -0.312093 55.6295 0.939451ZM72.7752 3.24622L71.6295 0.939451C71.0038 -0.312093 69.9962 -0.312093 69.3706 0.931271L68.2249 3.23804C68.0705 3.55706 67.6561 3.8679 67.3067 3.92516L65.2347 4.26872C63.9102 4.49776 63.6014 5.46301 64.5521 6.42007L66.1691 8.04789C66.4373 8.31783 66.5916 8.84954 66.5185 9.24218L66.0554 11.2545C65.6897 12.8414 66.5348 13.4549 67.9242 12.6287L69.8662 11.4671C70.2156 11.2545 70.8007 11.2545 71.1501 11.4671L73.0921 12.6287C74.4816 13.4631 75.3266 12.8414 74.961 11.2545L74.4978 9.24218C74.4084 8.85772 74.5628 8.32601 74.8309 8.05607L76.4479 6.42825C77.3986 5.46301 77.0899 4.49776 75.7654 4.2769L73.6934 3.93334C73.344 3.8679 72.9296 3.56524 72.7752 3.24622Z" fill="#FFD600"/>
</svg>
