<svg width="33" height="32" viewBox="0 0 33 32" fill="none" xmlns="http://www.w3.org/2000/svg">
<path d="M26.5999 16.6668C26.5999 14.8268 28.0933 13.3335 29.9333 13.3335V12.0002C29.9333 6.66683 28.5999 5.3335 23.2666 5.3335H9.93327C4.59993 5.3335 3.2666 6.66683 3.2666 12.0002V12.6668C5.1066 12.6668 6.59993 14.1602 6.59993 16.0002C6.59993 17.8402 5.1066 19.3335 3.2666 19.3335V20.0002C3.2666 25.3335 4.59993 26.6668 9.93327 26.6668H23.2666C28.5999 26.6668 29.9333 25.3335 29.9333 20.0002C28.0933 20.0002 26.5999 18.5068 26.5999 16.6668Z" stroke="white" stroke-width="1.5" stroke-linecap="round" stroke-linejoin="round"/>
<path d="M12.5996 19.6665L20.5996 11.6665" stroke="white" stroke-width="1.5" stroke-linecap="round" stroke-linejoin="round"/>
<path d="M20.592 19.6667H20.6039" stroke="white" stroke-width="2" stroke-linecap="round" stroke-linejoin="round"/>
<path d="M12.592 12.3332H12.6039" stroke="white" stroke-width="2" stroke-linecap="round" stroke-linejoin="round"/>
</svg>
