<svg width="24" height="24" viewBox="0 0 24 24" fill="none" xmlns="http://www.w3.org/2000/svg">
<path d="M21.2298 15.7107L21.2298 15.7117C21.2346 18.119 20.7198 19.7187 19.7135 20.7261C18.7071 21.7336 17.1073 22.2507 14.6998 22.2507H9.29977C6.88709 22.2507 5.28731 21.7335 4.28101 20.7261C3.2746 19.7186 2.75977 18.1187 2.75977 15.7107V11.2207C2.75977 11.0868 2.87591 10.9707 3.00977 10.9707C3.14362 10.9707 3.25977 11.0868 3.25977 11.2207V15.7107C3.25977 17.7906 3.62318 19.3487 4.64246 20.368C5.66175 21.3873 7.21989 21.7507 9.29977 21.7507H14.6898C16.7696 21.7507 18.3278 21.3873 19.3471 20.368C20.3664 19.3487 20.7298 17.7906 20.7298 15.7107V11.2207C20.7298 11.0868 20.8459 10.9707 20.9798 10.9707C21.1136 10.9707 21.2298 11.0868 21.2298 11.2207L21.2298 15.7107Z" fill="#A2B5C1" stroke="#A2B5C1"/>
<path d="M10.35 2.25H9.89743L9.85248 2.70033L9.25271 8.70804C9.25267 8.70844 9.25263 8.70883 9.25258 8.70923C9.16922 9.51015 9.40773 10.2837 9.92987 10.8562C10.4663 11.4489 11.2484 11.725 12 11.725C12.7519 11.725 13.5344 11.4486 14.0709 10.8554L14.0728 10.8532C14.5903 10.2741 14.8312 9.50303 14.7474 8.70881L14.1475 2.70033L14.1026 2.25H13.65H10.35ZM12 12.25C11.034 12.25 10.1719 11.8745 9.56188 11.1958C8.94953 10.5144 8.661 9.62532 8.75751 8.6599C8.75751 8.65985 8.75752 8.6598 8.75752 8.65975L9.42725 1.98234C9.42729 1.98204 9.42732 1.98173 9.42735 1.98143C9.44179 1.84869 9.55382 1.75 9.68 1.75H14.35C14.4816 1.75 14.5884 1.84399 14.6026 1.98062C14.6026 1.98075 14.6026 1.98088 14.6026 1.98101L15.2725 8.65975C15.2725 8.6598 15.2725 8.65985 15.2725 8.6599C15.3688 9.62351 15.0816 10.5111 14.4716 11.1919C13.828 11.8769 12.9623 12.25 12 12.25Z" fill="#A2B5C1" stroke="#A2B5C1"/>
<path d="M21.8625 8.33011L21.8626 8.33059C21.9688 9.37471 21.651 10.353 20.9794 11.0943C20.3079 11.8357 19.3643 12.25 18.31 12.25C16.5379 12.25 14.9416 10.8056 14.7574 9.03928C14.7574 9.03895 14.7574 9.03863 14.7573 9.0383L14.0577 2.0326C14.0577 2.03232 14.0577 2.03205 14.0577 2.03177C14.0514 1.96322 14.0742 1.88881 14.1263 1.82925C14.1688 1.78067 14.2303 1.75 14.31 1.75H17.36C18.768 1.75 19.7021 2.04531 20.3343 2.61418C20.9684 3.1848 21.3853 4.10806 21.5834 5.55878L21.8625 8.33011ZM15.14 2.25H14.5874L14.6425 2.79983L15.2625 8.98983L15.2625 8.98983L15.2627 8.99172C15.4188 10.493 16.7905 11.75 18.31 11.75C19.2019 11.75 20.0175 11.4072 20.6071 10.7694L20.6072 10.7694L20.6106 10.7656C21.1932 10.1223 21.4495 9.27012 21.3679 8.38414L21.3679 8.38414L21.3674 8.37935L21.0874 5.62935L21.0865 5.62068L21.0854 5.61205C20.9276 4.46184 20.6498 3.5734 20.0163 2.99753C19.3769 2.41624 18.4833 2.25 17.36 2.25H15.14Z" fill="#A2B5C1" stroke="#A2B5C1"/>
<path d="M2.08746 8.33059L2.08763 8.32886L2.35667 5.58866C2.55984 4.12236 2.97944 3.19154 3.61518 2.61729C4.24847 2.04525 5.18215 1.75 6.59002 1.75H9.64002C9.70333 1.75 9.77381 1.77643 9.83525 1.84197C9.87593 1.88536 9.90011 1.94815 9.89235 2.03173C9.89233 2.03202 9.8923 2.03231 9.89227 2.03259L9.1927 9.0383C9.19267 9.03863 9.19263 9.03897 9.1926 9.03931C9.00842 10.8056 7.41207 12.25 5.64002 12.25C4.58568 12.25 3.64215 11.8357 2.97058 11.0943C2.29902 10.353 1.98127 9.37471 2.08746 8.33059ZM2.85483 5.6308L2.85344 5.64077L2.85245 5.65079L2.5826 8.37929C2.48884 9.27411 2.76029 10.1262 3.33942 10.7656C3.92157 11.4084 4.74018 11.75 5.64002 11.75C7.15597 11.75 8.54234 10.4961 8.68763 8.98884C8.68766 8.98849 8.6877 8.98813 8.68773 8.98778L9.30753 2.79983L9.3626 2.25H8.81002H6.59002C5.46791 2.25 4.57354 2.41331 3.93239 2.99632C3.29779 3.57337 3.01748 4.46686 2.85483 5.6308Z" fill="#A2B5C1" stroke="#A2B5C1"/>
<path d="M14.5 22.75H9.5C9.09 22.75 8.75 22.41 8.75 22V19.5C8.75 17.4 9.9 16.25 12 16.25C14.1 16.25 15.25 17.4 15.25 19.5V22C15.25 22.41 14.91 22.75 14.5 22.75ZM10.25 21.25H13.75V19.5C13.75 18.24 13.26 17.75 12 17.75C10.74 17.75 10.25 18.24 10.25 19.5V21.25Z" fill="#A2B5C1"/>
</svg>
