<svg width="16" height="16" viewBox="0 0 16 16" fill="none" xmlns="http://www.w3.org/2000/svg">
<path d="M11.333 14.1673H4.66634C4.39301 14.1673 4.16634 13.9407 4.16634 13.6673C4.16634 13.394 4.39301 13.1673 4.66634 13.1673H11.333C13.2397 13.1673 14.1663 12.2407 14.1663 10.334V5.66732C14.1663 3.76065 13.2397 2.83398 11.333 2.83398H4.66634C2.75967 2.83398 1.83301 3.76065 1.83301 5.66732C1.83301 5.94065 1.60634 6.16732 1.33301 6.16732C1.05967 6.16732 0.833008 5.94065 0.833008 5.66732C0.833008 3.23398 2.23301 1.83398 4.66634 1.83398H11.333C13.7663 1.83398 15.1663 3.23398 15.1663 5.66732V10.334C15.1663 12.7673 13.7663 14.1673 11.333 14.1673Z" fill="white"/>
<path d="M8.00018 8.57998C7.44018 8.57998 6.87351 8.40665 6.44018 8.05331L4.35351 6.38665C4.14018 6.21331 4.10018 5.89998 4.27351 5.68665C4.44685 5.47331 4.76017 5.43332 4.97351 5.60665L7.06018 7.27332C7.56684 7.67998 8.42684 7.67998 8.93351 7.27332L11.0202 5.60665C11.2335 5.43332 11.5535 5.46665 11.7202 5.68665C11.8935 5.89998 11.8602 6.21998 11.6402 6.38665L9.5535 8.05331C9.12684 8.40665 8.56018 8.57998 8.00018 8.57998Z" fill="white"/>
<path d="M5.33301 11.5H1.33301C1.05967 11.5 0.833008 11.2733 0.833008 11C0.833008 10.7267 1.05967 10.5 1.33301 10.5H5.33301C5.60634 10.5 5.83301 10.7267 5.83301 11C5.83301 11.2733 5.60634 11.5 5.33301 11.5Z" fill="white"/>
<path d="M3.33301 8.83398H1.33301C1.05967 8.83398 0.833008 8.60732 0.833008 8.33398C0.833008 8.06065 1.05967 7.83398 1.33301 7.83398H3.33301C3.60634 7.83398 3.83301 8.06065 3.83301 8.33398C3.83301 8.60732 3.60634 8.83398 3.33301 8.83398Z" fill="white"/>
</svg>
