<svg width="12" height="12" viewBox="0 0 12 12" fill="none" xmlns="http://www.w3.org/2000/svg">
<path d="M7.04209 0.861565L8.09959 2.97656C8.24209 3.26906 8.62459 3.54656 8.94709 3.60656L10.8596 3.92156C12.0821 4.12406 12.3671 5.00906 11.4896 5.89406L9.99709 7.38656C9.74959 7.63406 9.60709 8.12156 9.68959 8.47406L10.1171 10.3191C10.4546 11.7741 9.67459 12.3441 8.39209 11.5791L6.59959 10.5141C6.27709 10.3191 5.73709 10.3191 5.41459 10.5141L3.62209 11.5791C2.33959 12.3366 1.55959 11.7741 1.89709 10.3191L2.32459 8.47406C2.39209 8.11406 2.24959 7.62656 2.00209 7.37906L0.50959 5.88656C-0.36791 5.00906 -0.0829096 4.12406 1.13959 3.91406L3.05209 3.59906C3.37459 3.54656 3.75709 3.26156 3.89959 2.96906L4.95709 0.854065C5.53459 -0.285935 6.46459 -0.285935 7.04209 0.861565Z" fill="#FFD600"/>
</svg>
