<svg width="33" height="32" viewBox="0 0 33 32" fill="none" xmlns="http://www.w3.org/2000/svg">
<path d="M24.2237 14.3867V19.72C24.2237 20.0667 24.2103 20.4 24.1703 20.72C23.8637 24.32 21.7437 26.1066 17.837 26.1066H17.3037C16.9703 26.1066 16.6503 26.2667 16.4503 26.5333L14.8503 28.6667C14.1437 29.6133 12.997 29.6133 12.2903 28.6667L10.6903 26.5333C10.517 26.3067 10.1303 26.1066 9.837 26.1066H9.30367C5.05034 26.1066 2.91699 25.0533 2.91699 19.72V14.3867C2.91699 10.48 4.717 8.36001 8.30367 8.05334C8.62367 8.01334 8.957 8 9.30367 8H17.837C22.0903 8 24.2237 10.1333 24.2237 14.3867Z" stroke="white" stroke-width="1.5" stroke-miterlimit="10" stroke-linecap="round" stroke-linejoin="round"/>
<path d="M29.557 9.05318V14.3865C29.557 18.3065 27.757 20.4132 24.1704 20.7198C24.2104 20.3998 24.2237 20.0665 24.2237 19.7198V14.3865C24.2237 10.1332 22.0904 7.99984 17.837 7.99984H9.30371C8.95704 7.99984 8.62371 8.01318 8.30371 8.05318C8.61038 4.46652 10.7304 2.6665 14.637 2.6665H23.1704C27.4237 2.6665 29.557 4.79985 29.557 9.05318Z" stroke="white" stroke-width="1.5" stroke-miterlimit="10" stroke-linecap="round" stroke-linejoin="round"/>
<path d="M18.2437 17.6667H18.2557" stroke="white" stroke-width="2" stroke-linecap="round" stroke-linejoin="round"/>
<path d="M13.5777 17.6667H13.5897" stroke="white" stroke-width="2" stroke-linecap="round" stroke-linejoin="round"/>
<path d="M8.91067 17.6667H8.92267" stroke="white" stroke-width="2" stroke-linecap="round" stroke-linejoin="round"/>
</svg>
