<svg width="163" height="37" viewBox="0 0 163 37" fill="none" xmlns="http://www.w3.org/2000/svg">
<path d="M19.1516 13.4399L18.2556 18.4319H12.2716L9.16763 35.9999H2.86363L5.96763 18.4319H0.015625L0.911625 13.4399H19.1516Z" fill="white"/>
<path d="M26.3681 21.3119C27.2428 20.2666 28.2348 19.4346 29.3441 18.8159C30.4535 18.1973 31.5841 17.8879 32.7361 17.8879L31.5841 24.5759H29.8241C28.5015 24.5759 27.4668 24.8213 26.7201 25.3119C25.9735 25.8026 25.4721 26.6559 25.2161 27.8719L23.7761 35.9999H17.4721L20.6721 18.0479H26.9441L26.3681 21.3119Z" fill="white"/>
<path d="M53.3526 18.0479L50.1526 35.9999H43.8806L44.3286 33.4399C43.6246 34.2506 42.7606 34.9119 41.7366 35.4239C40.734 35.9146 39.6246 36.1599 38.4086 36.1599C36.638 36.1599 35.262 35.6586 34.2806 34.6559C33.2993 33.6533 32.8086 32.2559 32.8086 30.4639C32.8086 29.8453 32.8726 29.1839 33.0006 28.4799L34.8246 18.0479H41.0966L39.4006 27.6799C39.3366 27.9573 39.3046 28.2346 39.3046 28.5119C39.3046 29.2799 39.5286 29.8879 39.9766 30.3359C40.4246 30.7626 41.0326 30.9759 41.8006 30.9759C42.6966 30.9759 43.454 30.6986 44.0726 30.1439C44.6913 29.5893 45.1073 28.8213 45.3206 27.8399L47.0486 18.0479H53.3526Z" fill="white"/>
<path d="M61.5621 36.2239C60.0688 36.2239 58.7355 35.9999 57.5621 35.5519C56.3888 35.1039 55.4715 34.4746 54.8101 33.6639C54.1488 32.8319 53.8181 31.8826 53.8181 30.8159C53.8181 30.6239 53.8395 30.3359 53.8821 29.9519H59.9301C59.9088 30.5493 60.0901 31.0079 60.4741 31.3279C60.8581 31.6479 61.3915 31.8079 62.0741 31.8079C62.6075 31.8079 63.0448 31.7013 63.3861 31.4879C63.7488 31.2746 63.9301 30.9973 63.9301 30.6559C63.9301 30.2506 63.7061 29.9413 63.2581 29.7279C62.8101 29.4933 62.0635 29.2053 61.0181 28.8639C59.8021 28.4799 58.7995 28.1066 58.0101 27.7439C57.2208 27.3813 56.5275 26.8479 55.9301 26.1439C55.3541 25.4399 55.0661 24.5333 55.0661 23.4239C55.0661 22.3573 55.3755 21.3973 55.9941 20.5439C56.6341 19.6906 57.5301 19.0293 58.6821 18.5599C59.8341 18.0693 61.1675 17.8239 62.6821 17.8239C64.3035 17.8239 65.7008 18.1013 66.8741 18.6559C68.0688 19.1893 68.9541 19.9359 69.5301 20.8959C70.1275 21.8559 70.3941 22.9226 70.3301 24.0959H64.6981C64.7195 23.5199 64.5488 23.0719 64.1861 22.7519C63.8235 22.4106 63.3008 22.2399 62.6181 22.2399C62.1275 22.2399 61.7221 22.3466 61.4021 22.5599C61.0821 22.7733 60.9221 23.0506 60.9221 23.3919C60.9221 23.7973 61.1461 24.1173 61.5941 24.3519C62.0635 24.5866 62.8421 24.8853 63.9301 25.2479C65.1248 25.6319 66.1168 26.0159 66.9061 26.3999C67.7168 26.7626 68.4101 27.2853 68.9861 27.9679C69.5621 28.6293 69.8501 29.4826 69.8501 30.5279C69.8501 32.2986 69.0821 33.6959 67.5461 34.7199C66.0101 35.7226 64.0155 36.2239 61.5621 36.2239Z" fill="white"/>
<path d="M80.3896 29.2799C80.3683 29.3866 80.3576 29.5146 80.3576 29.6639C80.3576 30.0053 80.4536 30.2613 80.6456 30.4319C80.859 30.5813 81.2003 30.6559 81.6696 30.6559H83.4936L82.5336 35.9999H79.7816C75.8776 35.9999 73.9256 34.3573 73.9256 31.0719C73.9256 30.5173 73.9896 29.8879 74.1176 29.1839L75.1736 23.2639H72.9656L73.8936 18.0479H76.1016L76.8696 13.6959H83.1736L82.4056 18.0479H85.6376L84.7096 23.2639H81.4776L80.3896 29.2799Z" fill="white"/>
<path d="M94.2744 21.3119C95.149 20.2666 96.141 19.4346 97.2504 18.8159C98.3597 18.1973 99.4904 17.8879 100.642 17.8879L99.4904 24.5759H97.7304C96.4077 24.5759 95.373 24.8213 94.6264 25.3119C93.8797 25.8026 93.3784 26.6559 93.1224 27.8719L91.6824 35.9999H85.3784L88.5784 18.0479H94.8504L94.2744 21.3119Z" fill="white"/>
<path d="M111.019 17.8239C113.366 17.8239 115.222 18.4533 116.587 19.7119C117.974 20.9706 118.667 22.6879 118.667 24.8639C118.667 25.5893 118.614 26.2293 118.507 26.7839C118.379 27.4666 118.251 27.9573 118.123 28.2559H106.251C106.23 28.3839 106.219 28.5759 106.219 28.8319C106.219 29.6426 106.411 30.2399 106.795 30.6239C107.2 31.0079 107.734 31.1999 108.395 31.1999C109.44 31.1999 110.272 30.7306 110.891 29.7919H117.547C117.056 31.0293 116.32 32.1386 115.339 33.1199C114.379 34.0799 113.238 34.8373 111.915 35.3919C110.614 35.9466 109.227 36.2239 107.755 36.2239C105.408 36.2239 103.542 35.5839 102.155 34.3039C100.768 33.0239 100.075 31.2639 100.075 29.0239C100.075 28.3839 100.139 27.7119 100.267 27.0079C100.608 25.1306 101.28 23.5093 102.283 22.1439C103.307 20.7573 104.566 19.6906 106.059 18.9439C107.574 18.1973 109.227 17.8239 111.019 17.8239ZM112.331 25.4399C112.374 25.1413 112.395 24.9493 112.395 24.8639C112.395 24.1813 112.182 23.6693 111.755 23.3279C111.328 22.9653 110.774 22.7839 110.091 22.7839C109.302 22.7839 108.619 23.0079 108.043 23.4559C107.467 23.9039 107.04 24.5653 106.763 25.4399H112.331Z" fill="white"/>
<path d="M130.738 17.8239C133.084 17.8239 134.94 18.4533 136.306 19.7119C137.692 20.9706 138.386 22.6879 138.386 24.8639C138.386 25.5893 138.332 26.2293 138.226 26.7839C138.098 27.4666 137.97 27.9573 137.842 28.2559H125.97C125.948 28.3839 125.938 28.5759 125.938 28.8319C125.938 29.6426 126.13 30.2399 126.514 30.6239C126.919 31.0079 127.452 31.1999 128.114 31.1999C129.159 31.1999 129.991 30.7306 130.61 29.7919H137.266C136.775 31.0293 136.039 32.1386 135.058 33.1199C134.098 34.0799 132.956 34.8373 131.634 35.3919C130.332 35.9466 128.946 36.2239 127.474 36.2239C125.127 36.2239 123.26 35.5839 121.874 34.3039C120.487 33.0239 119.794 31.2639 119.794 29.0239C119.794 28.3839 119.858 27.7119 119.986 27.0079C120.327 25.1306 120.999 23.5093 122.002 22.1439C123.026 20.7573 124.284 19.6906 125.778 18.9439C127.292 18.1973 128.946 17.8239 130.738 17.8239ZM132.05 25.4399C132.092 25.1413 132.114 24.9493 132.114 24.8639C132.114 24.1813 131.9 23.6693 131.474 23.3279C131.047 22.9653 130.492 22.7839 129.81 22.7839C129.02 22.7839 128.338 23.0079 127.762 23.4559C127.186 23.9039 126.759 24.5653 126.482 25.4399H132.05Z" fill="white"/>
<path d="M147.5 11.25H154.5C154.91 11.25 155.25 10.91 155.25 10.5C155.25 10.09 154.91 9.75 154.5 9.75H147.5C147.09 9.75 146.75 10.09 146.75 10.5C146.75 10.91 147.09 11.25 147.5 11.25Z" fill="#FD6919"/>
<path d="M147 22.3199C147.34 22.3199 147.68 22.22 147.97 22.03L152.23 19.1899H156C159.44 19.1899 161.75 16.8799 161.75 13.4399V7.43994C161.75 3.99994 159.44 1.68994 156 1.68994H146C142.56 1.68994 140.25 3.99994 140.25 7.43994V13.4399C140.25 16.6199 142.23 18.84 145.25 19.15V20.5699C145.25 21.2199 145.6 21.8099 146.17 22.1099C146.43 22.2499 146.72 22.3199 147 22.3199ZM156 3.17993C158.58 3.17993 160.25 4.84993 160.25 7.42993V13.4299C160.25 16.0099 158.58 17.6799 156 17.6799H152C151.85 17.6799 151.71 17.7199 151.58 17.8099L147.13 20.77C147.02 20.84 146.92 20.81 146.87 20.78C146.82 20.75 146.74 20.6899 146.74 20.5599V18.4299C146.74 18.0199 146.4 17.6799 145.99 17.6799C143.41 17.6799 141.74 16.0099 141.74 13.4299V7.42993C141.74 4.84993 143.41 3.17993 145.99 3.17993H156Z" fill="white"/>
</svg>
